<svg width="169" height="169" viewBox="0 0 169 169" fill="none" xmlns="http://www.w3.org/2000/svg">
<path d="M0 30.0001C0 13.4315 13.4315 0 30 0H168.464V138.464C168.464 155.032 155.033 168.464 138.464 168.464H0V30.0001Z" fill="#72BF44"/>
<path d="M144.516 95.9512H142.51V77.8887C142.51 75.0292 141.087 72.4973 138.914 70.9589V68.4995C138.914 64.932 136.011 62.0298 132.444 62.0298H130.947L136.675 53.6234C138.596 50.8058 137.865 46.9509 135.048 45.0304L96.1744 18.5392C94.8095 17.6088 93.1643 17.2655 91.5406 17.5735C89.9177 17.881 88.5115 18.802 87.5813 20.1671L54.0287 69.4025H44.6919L46.9445 46.5989C46.9699 46.3419 47.1369 46.1192 47.3698 46.0315C50.272 44.9372 52.7871 42.8937 54.4517 40.2776C54.5828 40.0716 54.8301 39.9539 55.0861 39.9798L69.7305 41.4266C70.7806 41.5284 71.7146 40.7636 71.8183 39.7141C71.9219 38.6646 71.1553 37.73 70.1058 37.6264L55.4614 36.1796C53.7615 36.0132 52.1404 36.7965 51.2296 38.2276C50.0058 40.1512 48.1565 41.6535 46.0227 42.458C44.4166 43.0636 43.3137 44.5062 43.1441 46.2233L40.8546 69.4022H38.4198L41.9823 33.3363C42.1106 32.0382 43.2692 31.0845 44.5689 31.2145L74.1625 34.1379C75.212 34.2392 76.1466 33.475 76.2502 32.4255C76.3539 31.376 75.5873 30.4414 74.5378 30.3378L44.9442 27.4144C41.5513 27.0796 38.5172 29.5673 38.1819 32.9607L35.3103 62.0298H30.4201C26.8529 62.0298 23.9504 64.932 23.9504 68.4995V70.1771C21.032 71.5208 19 74.4709 19 77.8887V142.977C19 147.656 22.807 151.463 27.4868 151.463H134.024C138.703 151.463 142.51 147.656 142.51 142.977V124.915H144.516C146.883 124.915 148.808 122.989 148.808 120.622V100.244C148.808 97.8767 146.883 95.9512 144.516 95.9512ZM132.444 65.8488C133.906 65.8486 135.095 67.0378 135.095 68.4998V69.4726C134.744 69.4281 134.387 69.4027 134.024 69.4027H125.922L128.344 65.8488H132.444ZM90.7369 22.3174C91.0928 21.7953 91.6307 21.443 92.2515 21.3252C92.3998 21.2972 92.5488 21.2831 92.6966 21.2831C93.1669 21.2831 93.6265 21.4239 94.0238 21.6945L132.897 48.1857C133.975 48.9203 134.254 50.3949 133.52 51.4726L121.301 69.4019H118.369L124.36 60.6116C125.331 59.186 125.411 57.3718 124.568 55.8766C123.447 53.8901 122.993 51.5511 123.289 49.2902C123.509 47.6081 122.768 45.9661 121.357 45.0045L101.205 31.2716C99.7939 30.3098 97.9949 30.2216 96.5099 31.0415C94.5143 32.1434 92.1711 32.576 89.9125 32.2598C88.2375 32.0248 86.5386 32.7812 85.5815 34.1853L61.5822 69.4022H58.6499L90.7369 22.3174ZM91.5778 54.742C83.2627 54.742 76.4371 61.2256 75.8809 69.4022H66.2028L88.7366 36.3359C88.7368 36.3359 88.7368 36.3359 88.7368 36.3359C88.8648 36.1477 89.0771 36.0357 89.2951 36.0357C89.3241 36.0357 89.3532 36.0378 89.3822 36.0417C92.4543 36.4714 95.6407 35.8836 98.3553 34.3847C98.5688 34.2664 98.8431 34.2835 99.0546 34.4274L119.207 48.1606C119.418 48.3045 119.534 48.5537 119.502 48.7955C119.1 51.8704 119.718 55.0514 121.242 57.7528C121.364 57.9698 121.349 58.2477 121.204 58.461L113.749 69.4019H107.275C106.719 61.2256 99.8934 54.742 91.5778 54.742ZM103.446 69.4025H79.7096C80.2566 63.3335 85.369 58.561 91.5778 58.561C97.7868 58.5608 102.899 63.3335 103.446 69.4025ZM27.7692 68.4995C27.7692 67.0376 28.9581 65.8483 30.4201 65.8483H34.9332L34.5822 69.4022H27.7692V68.4995ZM22.8187 77.8887C22.8187 75.315 24.9128 73.2209 27.4868 73.2209H134.024C136.598 73.2209 138.692 75.315 138.692 77.8887V83.1869H22.8187V77.8887ZM138.692 142.977C138.692 145.551 136.598 147.645 134.024 147.645H27.4868C24.9128 147.645 22.8187 145.551 22.8187 142.977V137.679H33.1153C34.17 137.679 35.0245 136.824 35.0245 135.769C35.0245 134.715 34.1697 133.86 33.1153 133.86H22.8187V87.0057H138.692V95.9512H120.537H120.537C114.817 95.9512 109.862 99.2855 107.51 104.112C107.503 104.128 107.494 104.144 107.486 104.16C107.466 104.201 107.448 104.244 107.429 104.285C107.149 104.88 106.906 105.496 106.707 106.131C106.707 106.133 106.706 106.135 106.706 106.137C106.283 107.495 106.055 108.937 106.055 110.433C106.055 118.418 112.552 124.915 120.537 124.915H120.537H138.691V133.86H45.3412C44.2865 133.86 43.432 134.715 43.432 135.769C43.432 136.824 44.2868 137.679 45.3412 137.679H138.692V142.977ZM144.99 120.622C144.99 120.883 144.777 121.096 144.516 121.096H120.537C116.495 121.096 112.971 118.835 111.163 115.511C111.081 115.36 111.003 115.207 110.927 115.052C110.777 114.741 110.642 114.422 110.523 114.095C110.103 112.953 109.875 111.719 109.875 110.433C109.875 109.147 110.104 107.913 110.523 106.77C110.642 106.444 110.778 106.125 110.927 105.814C111.003 105.659 111.081 105.506 111.163 105.355C112.971 102.031 116.495 99.77 120.537 99.77H144.516C144.777 99.77 144.99 99.9825 144.99 100.244V120.622Z" fill="white"/>
<path d="M120.985 102.686C116.713 102.686 113.238 106.162 113.238 110.433C113.238 114.705 116.713 118.18 120.985 118.18C125.257 118.18 128.732 114.705 128.732 110.433C128.732 106.162 125.257 102.686 120.985 102.686ZM120.985 114.361C118.819 114.361 117.057 112.599 117.057 110.433C117.057 108.267 118.819 106.505 120.985 106.505C123.151 106.505 124.913 108.267 124.913 110.433C124.913 112.599 123.151 114.361 120.985 114.361Z" fill="white"/>
</svg>
