<svg width="169" height="169" viewBox="0 0 169 169" fill="none" xmlns="http://www.w3.org/2000/svg">
<path d="M0 30C0 13.4315 13.4314 0 30 0H168.464V138.464C168.464 155.033 155.033 168.464 138.464 168.464H0V30Z" fill="#72BF44"/>
<path d="M133.9 93.455C132.404 93.3873 130.912 93.6569 129.534 94.2439V85.4776C129.536 84.2172 129.038 83.0076 128.149 82.1141C127.26 81.2205 126.053 80.7161 124.793 80.7113H81.1717C79.9113 80.7161 78.7044 81.2206 77.8155 82.1141C76.9267 83.0076 76.4285 84.2172 76.4304 85.4776V94.2435C75.0527 93.6564 73.5606 93.387 72.0646 93.455C67.093 93.6852 63.0196 97.7072 62.7916 102.61C62.5686 107.389 65.9819 111.607 70.6691 112.504V138.992C70.67 139.802 70.9923 140.579 71.5652 141.152C72.1382 141.725 72.915 142.047 73.7254 142.048H79.2659C80.0758 142.047 80.8522 141.725 81.425 141.153C81.9979 140.58 82.3205 139.804 82.3221 138.994L82.326 133.301H123.639L123.643 138.994C123.644 139.804 123.967 140.58 124.54 141.153C125.113 141.725 125.89 142.047 126.699 142.048H132.24C133.05 142.047 133.827 141.725 134.4 141.152C134.973 140.579 135.295 139.802 135.296 138.992V112.504C139.983 111.607 143.396 107.389 143.174 102.61C142.944 97.7067 138.871 93.6852 133.9 93.455V93.455ZM79.3132 85.4776C79.3106 84.9816 79.5048 84.5048 79.8532 84.1518C80.2016 83.7987 80.6757 83.5982 81.1717 83.5941H124.793C125.289 83.5981 125.763 83.7986 126.111 84.1517C126.46 84.5047 126.654 84.9815 126.651 85.4776V96.118C126.627 96.1401 126.603 96.1608 126.579 96.1831C125.642 97.0655 124.895 98.1304 124.385 99.3123C123.874 100.494 123.611 101.768 123.612 103.056L123.61 103.229C123.608 103.412 123.605 103.616 123.619 103.824L123.624 111.289C119.512 110.171 115.315 109.389 111.076 108.952L113.733 101.635C113.863 101.275 113.846 100.879 113.684 100.533C113.522 100.186 113.23 99.9181 112.87 99.7875C112.511 99.6569 112.115 99.6743 111.768 99.8361C111.422 99.9978 111.154 100.29 111.023 100.65L108.099 108.701C104.933 108.496 101.758 108.484 98.5915 108.664L94.8919 100.717C94.7275 100.376 94.4351 100.113 94.0782 99.9852C93.7213 99.8577 93.3286 99.8759 92.985 100.036C92.6414 100.196 92.3746 100.485 92.2424 100.84C92.1102 101.195 92.1233 101.588 92.2787 101.934L95.5218 108.9C91.0673 109.331 86.6574 110.139 82.3394 111.315L82.3447 103.824C82.3584 103.615 82.3558 103.411 82.3531 103.229L82.3515 103.055C82.3521 101.767 82.0891 100.493 81.5789 99.3114C81.0686 98.1295 80.3217 97.0645 79.3843 96.1822C79.3603 96.1598 79.3363 96.1394 79.3122 96.1173L79.3132 85.4776ZM82.3382 114.308C87.3311 112.892 92.4556 111.99 97.6318 111.615C97.6558 111.617 97.6822 111.621 97.7077 111.621C97.7998 111.62 97.8916 111.611 97.9818 111.593C106.621 111.012 115.296 111.921 123.626 114.28L123.633 124.984H82.3308L82.3382 114.308ZM79.2652 139.166H73.7246C73.6786 139.166 73.6345 139.147 73.602 139.115C73.5695 139.082 73.5512 139.038 73.5512 138.992V111.839C73.551 111.324 73.362 110.827 73.0201 110.442C72.6782 110.056 72.207 109.81 71.6956 109.749C69.9943 109.554 68.4291 108.724 67.3123 107.426C66.1955 106.128 65.6093 104.456 65.6705 102.745C65.8305 99.3124 68.6975 96.4971 72.1979 96.3349C72.3064 96.33 72.4146 96.3274 72.5225 96.3273C74.0383 96.3284 75.5139 96.8148 76.7333 97.7151C76.8681 97.8886 77.0406 98.0291 77.2378 98.1259C77.2904 98.1739 77.3435 98.2193 77.3947 98.2684C78.049 98.8825 78.5706 99.624 78.9275 100.447C79.2844 101.271 79.469 102.158 79.4698 103.056C79.4698 103.124 79.4698 103.196 79.4718 103.269C79.4737 103.405 79.4758 103.56 79.4679 103.652C79.4648 103.691 79.4631 103.731 79.4631 103.77L79.4477 126.425L79.4441 131.856V131.861L79.4393 138.991C79.4395 139.014 79.435 139.037 79.4263 139.058C79.4176 139.079 79.4048 139.099 79.3886 139.115C79.3724 139.131 79.3532 139.144 79.332 139.153C79.3108 139.161 79.2881 139.166 79.2652 139.166V139.166ZM82.3274 130.418L82.3291 127.867H123.635L123.637 130.418H82.3274ZM134.269 109.749C133.758 109.81 133.286 110.056 132.944 110.441C132.603 110.827 132.414 111.324 132.413 111.839V138.992C132.413 139.038 132.395 139.082 132.363 139.115C132.33 139.147 132.286 139.166 132.24 139.166H126.699C126.653 139.166 126.609 139.147 126.577 139.115C126.544 139.082 126.526 139.038 126.526 138.992L126.508 113.186V113.173L126.502 103.77C126.502 103.73 126.501 103.691 126.497 103.651C126.489 103.558 126.492 103.403 126.493 103.267C126.493 103.195 126.495 103.123 126.495 103.056C126.496 102.158 126.681 101.271 127.037 100.447C127.394 99.6242 127.916 98.8827 128.57 98.2686C128.622 98.2205 128.675 98.1725 128.727 98.1259C128.924 98.029 129.097 97.8884 129.232 97.7149C130.451 96.8147 131.926 96.3284 133.442 96.3273C133.55 96.3273 133.658 96.3298 133.767 96.3349C137.267 96.4971 140.133 99.3124 140.295 102.745C140.356 104.456 139.769 106.128 138.652 107.426C137.536 108.724 135.97 109.554 134.269 109.749V109.749Z" fill="white"/>
<path d="M69.7576 65.8047C70.3957 68.1306 72.4708 69.848 74.9015 69.848C77.3322 69.848 79.4069 68.1306 80.0454 65.8047H81.8904V67.3712C81.8904 67.7535 82.0423 68.1201 82.3126 68.3905C82.5829 68.6608 82.9496 68.8126 83.3318 68.8126H124.159C124.541 68.8126 124.908 68.6608 125.178 68.3905C125.448 68.1201 125.6 67.7535 125.6 67.3712V35.4681C125.6 35.0858 125.448 34.7192 125.178 34.4489C124.908 34.1786 124.541 34.0267 124.159 34.0267H83.3318C82.9496 34.0267 82.5829 34.1786 82.3126 34.4489C82.0423 34.7192 81.8904 35.0858 81.8904 35.4681V51.5129C80.151 50.3189 78.1401 49.5799 76.0415 49.3635C75.3796 36.8886 65.4839 26.9523 53.4138 26.9523C40.9583 26.9523 30.8188 37.5334 30.7517 50.5659C30.7493 50.5993 30.7467 50.6327 30.7467 50.6665V139.166H26.4297C26.0474 139.166 25.6808 139.318 25.4105 139.588C25.1401 139.858 24.9883 140.225 24.9883 140.607C24.9883 140.989 25.1401 141.356 25.4105 141.626C25.6808 141.897 26.0474 142.049 26.4297 142.049H39.4504C39.8327 142.049 40.1993 141.897 40.4696 141.626C40.7399 141.356 40.8918 140.989 40.8918 140.607C40.8918 140.225 40.7399 139.858 40.4696 139.588C40.1993 139.318 39.8327 139.166 39.4504 139.166H33.6295V50.7641C33.6307 50.74 33.6329 50.7179 33.6329 50.6944C33.6329 39.192 42.5067 29.8341 53.4138 29.8341C63.9002 29.8341 72.505 38.4838 73.1541 49.3724C70.0458 49.7176 67.1737 51.1959 65.0864 53.5248C62.9992 55.8538 61.8431 58.87 61.839 61.9974V64.3632C61.839 64.7455 61.9909 65.1122 62.2612 65.3825C62.5315 65.6528 62.8982 65.8047 63.2804 65.8047H69.7576ZM74.9015 66.9652C74.4928 66.9586 74.0925 66.8487 73.7376 66.6458C73.3828 66.4429 73.085 66.1535 72.872 65.8047H76.932C76.7189 66.1536 76.421 66.443 76.066 66.646C75.711 66.8489 75.3104 66.9587 74.9015 66.9652V66.9652ZM84.7732 65.8047H85.992C86.3742 65.8047 86.7409 65.6528 87.0112 65.3825C87.2815 65.1122 87.4334 64.7455 87.4334 64.3632V63.7655L94.6596 56.6198L103.408 65.9298H84.7732V65.8047ZM107.364 65.9293L107.144 65.6949L113.949 59.9614L120.321 65.9298L107.364 65.9293ZM122.717 36.909V64.2242L114.985 56.982C114.727 56.7407 114.39 56.6023 114.037 56.593C113.685 56.5837 113.341 56.7042 113.071 56.9316L105.167 63.5909L95.7481 53.5681C95.6164 53.4279 95.458 53.3155 95.2821 53.2376C95.1062 53.1596 94.9166 53.1177 94.7242 53.1143C94.5317 53.1089 94.34 53.143 94.1611 53.2146C93.9823 53.2862 93.82 53.3936 93.6843 53.5304L87.2546 59.8877C86.9077 57.8266 86.0551 55.8837 84.7732 54.2328V36.9095L122.717 36.909ZM64.723 61.9974C64.726 59.394 65.7615 56.8981 67.6024 55.0572C69.4433 53.2163 71.9392 52.1808 74.5426 52.1778H74.7319C77.3353 52.1808 79.8312 53.2163 81.6721 55.0572C83.513 56.8981 84.5485 59.394 84.5515 61.9974V62.7152C84.5244 62.7823 84.5025 62.8514 84.4862 62.9218H64.723V61.9974Z" fill="white"/>
<path d="M72.6376 55.3733C72.5281 55.2189 72.3893 55.0876 72.229 54.9868C72.0688 54.886 71.8903 54.8178 71.7037 54.7861C71.5171 54.7543 71.326 54.7596 71.1415 54.8017C70.9569 54.8437 70.7824 54.9217 70.628 55.0312C69.3091 55.9648 68.1787 57.1395 67.2967 58.4935C67.1933 58.652 67.1221 58.8294 67.0872 59.0154C67.0523 59.2015 67.0544 59.3926 67.0934 59.5779C67.1323 59.7631 67.2074 59.9388 67.3143 60.0951C67.4212 60.2513 67.5578 60.385 67.7164 60.4884C67.8749 60.5918 68.0523 60.663 68.2383 60.6979C68.4244 60.7328 68.6155 60.7307 68.8008 60.6917C68.986 60.6527 69.1618 60.5776 69.318 60.4708C69.4742 60.3639 69.6079 60.2272 69.7113 60.0687C70.3955 59.0183 71.2723 58.107 72.2955 57.3829C72.4499 57.2734 72.5812 57.1346 72.682 56.9743C72.7828 56.8141 72.851 56.6355 72.8827 56.4489C72.9145 56.2623 72.9092 56.0713 72.8671 55.8867C72.8251 55.7022 72.7471 55.5277 72.6376 55.3733Z" fill="white"/>
<path d="M104.421 54.6338C105.425 54.6338 106.406 54.3361 107.241 53.7785C108.075 53.2208 108.726 52.4282 109.11 51.5008C109.494 50.5734 109.594 49.553 109.399 48.5685C109.203 47.584 108.719 46.6797 108.01 45.9699C107.3 45.2601 106.396 44.7767 105.411 44.5809C104.427 44.3851 103.406 44.4856 102.479 44.8697C101.551 45.2539 100.759 45.9044 100.201 46.739C99.6434 47.5736 99.3457 48.5548 99.3457 49.5586C99.3472 50.9041 99.8824 52.1942 100.834 53.1456C101.785 54.0971 103.075 54.6323 104.421 54.6338V54.6338ZM104.421 47.3662C104.855 47.3662 105.278 47.4948 105.639 47.7357C105.999 47.9766 106.28 48.319 106.446 48.7196C106.612 49.1202 106.656 49.561 106.571 49.9863C106.487 50.4116 106.278 50.8022 105.971 51.1088C105.665 51.4154 105.274 51.6243 104.849 51.7088C104.423 51.7934 103.983 51.75 103.582 51.5841C103.181 51.4181 102.839 51.1371 102.598 50.7766C102.357 50.4161 102.229 49.9922 102.229 49.5586C102.229 48.9773 102.46 48.4201 102.871 48.009C103.282 47.598 103.84 47.3668 104.421 47.3662V47.3662Z" fill="white"/>
</svg>
