<svg width="169" height="169" viewBox="0 0 169 169" fill="none" xmlns="http://www.w3.org/2000/svg">
<path d="M0 30.0001C0 13.4315 13.4315 0 30 0H168.464V138.464C168.464 155.032 155.033 168.464 138.464 168.464H0V30.0001Z" fill="#72BF44"/>
<path d="M30.8632 44.6571L36.9406 50.5814L35.5061 58.9466C34.9821 62.0009 38.1903 64.3304 40.9328 62.8893L48.4452 58.9398L55.9579 62.8893C58.7024 64.332 61.9074 61.9956 61.3846 58.9464L59.9498 50.5811L66.0277 44.6568H66.0275C66.1508 44.5367 66.2641 44.4091 66.368 44.2763L69.0773 46.917C69.1555 46.9934 69.1914 47.1036 69.1729 47.2111L67.2696 58.3075C66.669 61.8064 70.3454 64.4774 73.4877 62.8253L83.4522 57.5865C83.5494 57.5356 83.6654 57.5353 83.7621 57.5865L93.7271 62.8255C96.8644 64.4745 100.546 61.8138 99.9452 58.3078L98.0419 47.2117C98.0237 47.1036 98.0593 46.9934 98.1373 46.9175L100.847 44.2768C100.951 44.4096 101.064 44.5369 101.187 44.6571L107.265 50.5814L105.83 58.9466C105.307 62.0009 108.514 64.3304 111.257 62.8893L118.77 58.9398L126.282 62.8893C129.027 64.332 132.232 61.9956 131.709 58.9464L130.274 50.5811L136.351 44.6571C138.57 42.4944 137.344 38.7228 134.278 38.2774L125.879 37.0569L122.123 29.4457C120.751 26.6674 116.786 26.6676 115.415 29.4457L111.659 37.0567L107.132 37.7145C108.249 35.1865 106.69 32.1655 103.824 31.7493L92.6824 30.1301C92.5746 30.1146 92.481 30.0466 92.4328 29.9485L87.4499 19.8531C85.8773 16.666 81.3351 16.6702 79.7641 19.8531L74.7817 29.9488C74.7332 30.0468 74.6399 30.1148 74.5316 30.1306L63.3907 31.7496C60.5246 32.1657 58.9652 35.1871 60.0821 37.7147L55.5557 37.0569L51.7996 29.4457C50.4279 26.6674 46.4625 26.6676 45.0918 29.4457L41.3349 37.0569L32.936 38.2774C29.8691 38.7231 28.6449 42.4947 30.8632 44.6571V44.6571ZM112.337 40.9532C113.556 40.7764 114.609 40.0113 115.154 38.907L118.769 31.5828L122.384 38.9076C122.929 40.0116 123.982 40.7764 125.2 40.9529L133.283 42.1276L127.434 47.8289C126.552 48.6883 126.15 49.9259 126.358 51.1393L127.739 59.1896L120.51 55.3887C119.42 54.8158 118.118 54.8155 117.029 55.3887L109.799 59.1896L111.18 51.1393C111.388 49.9259 110.985 48.6886 110.104 47.8289L104.256 42.1278L112.337 40.9532ZM63.9586 35.6617L75.0993 34.0427C76.4953 33.8401 77.7018 32.9638 78.3264 31.6985L83.3088 21.6025C83.4329 21.3516 83.7808 21.3516 83.9047 21.6025L88.8873 31.6985C89.5119 32.9638 90.7182 33.8401 92.1139 34.0425L103.255 35.6617C103.532 35.7018 103.64 36.0333 103.439 36.2283L95.3764 44.087C94.3667 45.0719 93.9063 46.4898 94.1448 47.88L96.0479 58.9762C96.0956 59.2505 95.8149 59.4569 95.5659 59.3267L85.6004 54.0873C84.3522 53.4314 82.8608 53.4311 81.6121 54.0876L71.6474 59.3264C71.3994 59.4566 71.1182 59.2523 71.1648 58.9762L73.0681 47.8798C73.3067 46.4895 72.846 45.0717 71.8358 44.0865L63.7739 36.2283C63.5749 36.0338 63.6801 35.7026 63.9586 35.6617V35.6617ZM42.0138 40.9532C43.2325 40.7764 44.2854 40.0113 44.8304 38.907L48.4452 31.5825L52.06 38.9068C52.6048 40.011 53.6579 40.7761 54.8765 40.9529L62.959 42.1276L57.1104 47.8289C56.2288 48.6883 55.8266 49.9259 56.0348 51.1393L57.4155 59.1896L50.1859 55.3887C49.0964 54.8158 47.7948 54.8155 46.705 55.3887L39.4754 59.1896L40.8561 51.1393C41.064 49.9259 40.6618 48.6886 39.7803 47.8289L33.9316 42.1276L42.0138 40.9532Z" fill="white"/>
<path d="M144.325 121.401C144.312 121.396 144.299 121.391 144.286 121.386L142.91 120.853C145.892 116.615 145.094 109.96 141.683 108.201C141.529 108.122 141.43 107.944 141.43 107.749V106.522C141.43 105.431 140.545 104.546 139.453 104.546C138.361 104.546 137.476 105.431 137.476 106.522V107.749C137.476 109.431 138.392 110.95 139.855 111.706C139.86 111.709 139.879 111.719 139.883 111.721C140.845 112.217 141.642 116.952 139.008 119.341C133.82 117.332 134.899 117.75 129.923 115.823L129.921 113.854C132.808 111.487 134.526 107.97 134.526 104.188V96.7351C134.526 95.6435 133.641 94.7585 132.55 94.7585C128.908 94.7585 129.967 94.797 127.682 94.6022C126.027 94.4617 124.532 93.1517 124.127 91.4842C123.594 89.3041 120.479 89.2933 119.941 91.4879C119.04 95.2049 115.247 94.7585 111.519 94.7585C110.427 94.7585 109.542 95.6435 109.542 96.7351V104.29C109.542 108.196 111.346 111.655 114.138 113.889V115.82C107.082 118.555 112.555 116.434 104.84 119.425C103.219 117.992 103.125 115.669 103.141 114.922C103.18 113.009 103.9 111.872 104.172 111.732C104.18 111.728 104.203 111.716 104.211 111.712C105.685 110.95 106.601 109.431 106.601 107.748V95.4166C106.601 81.5305 123.196 74.5953 132.915 84.2427C135.856 87.1628 137.476 91.0538 137.476 95.1986V97.2978C137.476 98.3894 138.361 99.2744 139.453 99.2744C140.545 99.2744 141.429 98.3894 141.429 97.2978V95.1986C141.429 89.9925 139.394 85.1053 135.7 81.4372C123.4 69.2276 102.649 78.2259 102.649 95.4166V107.748C102.649 107.943 102.549 108.121 102.382 108.207C100.505 109.175 99.2514 111.778 99.1881 114.84C99.1402 117.167 99.765 119.284 100.932 120.939C99.9311 121.327 97.309 122.085 95.003 125.261C94.8104 125.186 94.6367 125.118 94.4846 125.058C93.8049 124.789 93.0873 124.685 92.3828 124.732V121.634C95.4613 119.128 97.4321 115.311 97.4321 111.041V105.311C99.2221 104.827 100.545 103.193 100.545 101.252V91.8057C100.545 88.4046 97.5982 85.9041 94.5452 86.1402C94.4295 86.1495 94.2996 86.1057 94.2822 86.0174C93.5965 82.512 91.3104 80.7346 87.4872 80.7346H85.9918C84.8999 80.7346 84.0152 81.6196 84.0152 82.7112C84.0152 83.8028 84.8999 84.6878 85.9918 84.6878H87.4872C89.8198 84.6878 90.1558 85.5148 90.4028 86.7759C90.8034 88.8247 92.7117 90.2452 94.8486 90.0818C95.6413 90.0202 96.5917 90.7436 96.5917 91.8057V101.252C96.5917 101.389 96.4723 101.508 96.3358 101.508C95.0681 101.508 94.0529 100.461 94.0529 99.2254C94.0529 98.1822 93.3226 97.2775 92.2816 97.0716C91.3329 96.8835 90.3767 97.3344 89.92 98.1878C88.8252 100.236 86.705 101.508 84.3871 101.508H71.7592H70.2997C69.4745 101.508 68.8032 100.837 68.8032 100.012V90.9592C68.8032 87.5009 71.6166 84.6876 75.0749 84.6876H76.7676C77.8595 84.6876 78.7442 83.8026 78.7442 82.711C78.7442 81.6193 77.8595 80.7344 76.7676 80.7344H75.0749C69.4368 80.7344 64.85 85.3211 64.85 90.9592V100.012C64.85 102.842 67.0196 105.173 69.7826 105.435V111.041C69.7826 114.974 71.5818 118.984 74.8319 121.632V124.678C74.2581 124.687 73.682 124.795 73.131 125.012C73.0711 125.036 73.0084 125.061 72.943 125.086C71.6156 123.757 70.0237 122.708 68.263 122.027C62.5345 119.808 57.2683 117.774 57.2683 117.774C56.5886 117.505 55.871 117.4 55.1665 117.447V114.348C58.245 111.842 60.2158 108.025 60.2158 103.756V98.0257C62.0058 97.5416 63.3286 95.9076 63.3286 93.9665V84.5199C63.3286 81.1165 60.3813 78.6181 57.3289 78.8545C57.2167 78.8634 57.083 78.8199 57.0656 78.7319C56.3804 75.2265 54.0944 73.4489 50.2709 73.4489H37.8594C32.2213 73.4489 27.6345 78.0356 27.6345 83.6737V92.726C27.6345 95.5565 29.804 97.8879 32.5671 98.1493V103.755C32.5671 107.688 34.3663 111.699 37.6164 114.347V117.393C37.0426 117.401 36.4668 117.51 35.9157 117.727C35.9157 117.727 32.5789 119.025 24.9332 122.011C19.7083 124.053 16.332 128.996 16.332 134.606V140.287C16.332 142.949 18.4987 145.116 21.1613 145.116H53.5481V147.572C53.5481 150.234 55.7147 152.401 58.3773 152.401H109.287C111.95 152.401 114.116 150.234 114.116 147.572V145.116H146.598C149.208 145.116 151.332 142.992 151.332 140.382V132.199C151.332 127.54 148.451 123.1 144.325 121.401V121.401ZM132.548 126.202L130.955 125.826C129.434 125.467 127.825 125.94 126.74 127.061L129.171 119.772L131.729 120.762L132.548 126.202ZM122.035 128.675L118.072 116.794C118.099 116.53 118.092 116.46 118.092 116.004C120.676 116.832 123.498 116.84 125.97 116.026C125.97 116.364 125.961 116.531 125.993 116.805L122.035 128.675ZM112.341 120.757C113.384 120.353 114.279 120.006 114.896 119.766L117.328 127.06C116.241 125.938 114.63 125.468 113.114 125.826L111.521 126.202L112.341 120.757ZM113.496 98.7122C115.263 98.7122 115.643 98.63 116.647 98.5536H116.647C118.753 98.3923 120.683 97.3581 122.037 95.7948C124.351 98.4576 127.132 98.7122 130.573 98.7122V104.188C130.573 108.84 126.769 112.679 122.177 112.679C122.168 112.679 122.158 112.679 122.149 112.679C116.971 112.662 113.496 108.736 113.496 104.29V98.7122H113.496ZM101.232 125.064C101.528 124.949 104.755 123.698 108.096 122.403L107.366 127.246C107.019 129.219 108.807 130.904 110.755 130.444L114.022 129.674C114.192 129.633 114.372 129.687 114.493 129.815L120.061 135.705V141.163H114.094C113.806 136.023 110.487 131.255 105.48 129.312C105.479 129.312 105.479 129.312 105.479 129.312C100.088 127.224 99.8802 127.144 98.8853 126.76C99.6878 125.912 100.561 125.344 101.232 125.064V125.064ZM85.2133 133.323C85.2765 133.425 86.9089 135.838 86.9761 135.938L85.7615 138.588H81.9021L80.6876 135.938C80.7549 135.838 82.387 133.425 82.4503 133.323H85.2133ZM81.103 148.448L82.261 142.541H85.4036L86.5616 148.448H81.103ZM93.0306 128.735C93.6391 128.976 94.5415 129.323 96.0082 129.887L90.6571 134.325C90.3714 133.902 89.0653 131.968 88.8299 131.619C90.3967 130.32 90.3654 130.346 92.1338 128.879C92.3852 128.671 92.7286 128.616 93.0306 128.735V128.735ZM73.7361 111.041V105.461H84.3873C86.9456 105.461 89.3847 104.505 91.2446 102.822C91.8212 103.636 92.5881 104.305 93.4792 104.766V111.041C93.4792 116.41 89.0988 120.743 83.7767 120.743C77.5388 120.744 73.7361 115.859 73.7361 111.041ZM88.4299 123.88V126.815L85.9399 128.88C85.9386 128.881 85.9372 128.883 85.9357 128.884C85.7475 129.04 85.5498 129.249 85.4571 129.369H82.207C82.2054 129.367 82.2036 129.366 82.2017 129.364C82.0518 129.179 81.8921 129.02 81.7276 128.883C81.7263 128.882 81.7252 128.881 81.7239 128.88L78.7854 126.443V123.857C81.8019 124.934 85.3461 125.002 88.4299 123.88V123.88ZM75.4771 128.835C75.4771 128.835 78.7385 131.54 78.8339 131.619L77.0067 134.325L71.6106 129.85C73.7426 129.018 74.0386 128.904 74.5807 128.691C74.8828 128.572 75.2262 128.627 75.4771 128.835V128.835ZM68.7529 126.719C67.744 127.112 67.7048 127.127 62.3474 129.22C57.2159 131.222 53.8606 135.65 53.5673 141.163H53.3741L51.8764 133.524L52.933 131.219C53.8651 131.329 54.8163 131.035 55.5181 130.453L63.0173 124.235L66.8361 125.714C67.5132 125.976 68.1562 126.314 68.7529 126.719V126.719ZM47.9972 126.037C48.0631 126.144 49.6845 128.541 49.7601 128.653L48.5454 131.303H44.686L43.4716 128.653L43.5001 128.61C43.5673 128.511 45.1715 126.139 45.2345 126.037H47.9972ZM43.887 141.163L45.045 135.256H48.1875L49.3455 141.163H43.887ZM55.8148 121.45C56.5243 121.731 57.8128 122.225 58.7924 122.602L53.4413 127.04C53.1999 126.682 51.8745 124.72 51.6142 124.334C53.7948 122.526 53.5259 122.749 54.918 121.594C55.1692 121.386 55.5136 121.331 55.8148 121.45V121.45ZM31.5877 92.7268V83.6745C31.5877 80.2162 34.4011 77.4029 37.8594 77.4029H50.2717C52.6043 77.4029 52.9403 78.2296 53.187 79.4915C53.5879 81.5403 55.5031 82.9611 57.6331 82.7969C58.424 82.7352 59.3762 83.4571 59.3762 84.5207V93.9673C59.3762 94.1038 59.2568 94.2232 59.1203 94.2232C57.8547 94.2232 56.8374 93.1788 56.8374 91.9406C56.8374 90.931 56.1532 90.0544 55.1736 89.8091C54.2141 89.5687 53.1854 90.0052 52.7047 90.9031C51.6099 92.9511 49.4897 94.2232 47.1718 94.2232C45.4242 94.2232 34.8747 94.2232 33.0844 94.2232C32.259 94.223 31.5877 93.552 31.5877 92.7268V92.7268ZM36.5203 103.756V98.1762H47.1715C49.7314 98.1762 52.1708 97.2192 54.0288 95.537C54.6054 96.3506 55.3723 97.0195 56.2634 97.4807V103.756C56.2634 109.122 51.888 113.458 46.5609 113.458C40.4123 113.459 36.5203 108.663 36.5203 103.756V103.756ZM46.5606 117.412C48.0639 117.412 49.6934 117.149 51.2138 116.595V119.53L48.7238 121.595C48.5307 121.755 48.3317 121.968 48.241 122.084H44.991C44.8136 121.871 44.6652 121.725 44.5081 121.595L41.5696 119.158V116.572C43.1648 117.141 44.8871 117.412 46.5606 117.412V117.412ZM37.365 121.405C37.6667 121.287 38.0104 121.342 38.2607 121.55C39.5376 122.609 40.1625 123.127 41.6178 124.334L39.7906 127.04C37.7845 125.376 38.4993 125.969 34.3935 122.564C35.7721 122.027 36.7232 121.659 37.365 121.405V121.405ZM20.2852 140.287V134.606C20.2852 130.636 22.674 127.138 26.3713 125.694L30.1814 124.206C33.0728 126.604 34.8294 128.061 37.7142 130.453C38.4471 131.061 39.4074 131.325 40.2993 131.219L41.3556 133.524L39.8581 141.163H21.1613C20.6782 141.163 20.2852 140.77 20.2852 140.287V140.287ZM57.5013 147.572C57.5013 146.138 57.5013 144.821 57.5013 141.89C57.5013 138.102 59.6289 134.526 63.8683 132.87L67.3988 131.493L74.9297 137.738C75.6059 138.299 76.5529 138.616 77.5153 138.504L78.5716 140.809L77.0742 148.448H58.3773C57.8942 148.448 57.5013 148.055 57.5013 147.572V147.572ZM110.163 147.572C110.163 148.055 109.77 148.448 109.287 148.448H90.5899L89.0924 140.809L90.1487 138.504C91.1136 138.617 92.056 138.3 92.7339 137.738L100.233 131.519L104.052 132.998C107.691 134.408 110.163 137.985 110.163 141.919C110.163 143.967 110.163 145.234 110.163 147.572V147.572ZM147.379 140.382C147.379 140.813 147.029 141.163 146.598 141.163H124.014V135.699L129.576 129.815L129.576 129.815C129.696 129.687 129.877 129.633 130.047 129.674L133.314 130.444C135.266 130.906 137.049 129.215 136.703 127.246L135.974 122.406C137.037 122.818 136.636 122.662 142.838 125.064C145.097 126.004 147.379 128.751 147.379 132.199V140.382H147.379Z" fill="white"/>
</svg>
