<svg width="169" height="169" viewBox="0 0 169 169" fill="none" xmlns="http://www.w3.org/2000/svg">
<path d="M0 30C0 13.4315 13.4315 0 30 0H168.464V138.464C168.464 155.033 155.033 168.464 138.464 168.464H0V30Z" fill="#72BF44"/>
<path d="M19.5556 56.4688H43.0676C44.2988 56.4688 45.297 55.4709 45.297 54.2394C45.297 53.0079 44.2988 52.01 43.0676 52.01H19.5556C18.3243 52.01 17.3262 53.0079 17.3262 54.2394C17.3262 55.4709 18.324 56.4688 19.5556 56.4688Z" fill="white"/>
<path d="M42.2595 67.2018H32.9716C31.7404 67.2018 30.7422 68.1997 30.7422 69.4312C30.7422 70.6627 31.7404 71.6606 32.9716 71.6606H42.2595C43.4907 71.6606 44.4889 70.6627 44.4889 69.4312C44.4889 68.1997 43.4907 67.2018 42.2595 67.2018Z" fill="white"/>
<path d="M10.2294 82.6618H32.9727C34.2039 82.6618 35.2021 81.6639 35.2021 80.4324C35.2021 79.2009 34.2039 78.203 32.9727 78.203H10.2294C8.99817 78.203 8 79.2009 8 80.4324C8 81.6639 8.99817 82.6618 10.2294 82.6618Z" fill="white"/>
<path d="M45.297 122.185C45.297 120.953 44.2988 119.956 43.0676 119.956H19.5556C18.3243 119.956 17.3262 120.953 17.3262 122.185C17.3262 123.416 18.3243 124.414 19.5556 124.414H43.0676C44.2988 124.414 45.297 123.416 45.297 122.185Z" fill="white"/>
<path d="M42.2595 104.764H32.9716C31.7404 104.764 30.7422 105.762 30.7422 106.994C30.7422 108.225 31.7404 109.223 32.9716 109.223H42.2595C43.4907 109.223 44.4889 108.225 44.4889 106.994C44.4889 105.762 43.4907 104.764 42.2595 104.764Z" fill="white"/>
<path d="M35.2021 95.9923C35.2021 94.7608 34.2039 93.7629 32.9727 93.7629H10.2294C8.99817 93.7629 8 94.7608 8 95.9923C8 97.2238 8.99817 98.2217 10.2294 98.2217H32.9727C34.2039 98.2217 35.2021 97.2238 35.2021 95.9923Z" fill="white"/>
<path d="M102.979 61.4092C104.211 61.4092 105.209 60.4113 105.209 59.1798V55.7769C105.209 54.5454 104.211 53.5475 102.979 53.5475C101.748 53.5475 100.75 54.5454 100.75 55.7769V59.1798C100.75 60.4113 101.748 61.4092 102.979 61.4092Z" fill="white"/>
<path d="M127.491 63.7004C126.621 62.83 125.209 62.83 124.339 63.7004L121.932 66.1066C121.062 66.9776 121.062 68.3889 121.932 69.2596C122.804 70.1302 124.215 70.1299 125.085 69.2596L127.491 66.8533C128.362 65.9827 128.362 64.5713 127.491 63.7004Z" fill="white"/>
<path d="M132.013 85.983C130.781 85.983 129.783 86.9809 129.783 88.2124C129.783 89.4439 130.781 90.4418 132.013 90.4418H135.415C136.647 90.4418 137.645 89.4439 137.645 88.2124C137.645 86.9809 136.647 85.983 135.415 85.983H132.013Z" fill="white"/>
<path d="M125.085 107.165C124.214 106.294 122.803 106.294 121.932 107.165C121.062 108.036 121.062 109.447 121.932 110.318L124.339 112.724C125.21 113.595 126.621 113.594 127.491 112.724C128.362 111.853 128.362 110.442 127.491 109.571L125.085 107.165Z" fill="white"/>
<path d="M100.75 117.245V120.648C100.75 121.879 101.748 122.877 102.979 122.877C104.211 122.877 105.209 121.879 105.209 120.648V117.245C105.209 116.013 104.211 115.016 102.979 115.016C101.748 115.016 100.75 116.014 100.75 117.245Z" fill="white"/>
<path d="M80.8737 107.165L78.4674 109.571C77.5968 110.442 77.5968 111.853 78.4674 112.724C79.3384 113.595 80.7497 113.594 81.6201 112.724L84.0263 110.318C84.897 109.447 84.897 108.036 84.0263 107.165C83.156 106.294 81.7443 106.294 80.8737 107.165Z" fill="white"/>
<path d="M70.5458 85.983C69.3146 85.983 68.3164 86.9809 68.3164 88.2124C68.3164 89.4439 69.3146 90.4418 70.5458 90.4418H73.9487C75.18 90.4418 76.1781 89.4439 76.1781 88.2124C76.1781 86.9809 75.18 85.983 73.9487 85.983H70.5458Z" fill="white"/>
<path d="M84.0283 66.1066L81.622 63.7004C80.7514 62.83 79.3397 62.83 78.4694 63.7004C77.5987 64.5713 77.5987 65.9827 78.4694 66.8533L80.8756 69.2596C81.7466 70.1302 83.1579 70.1299 84.0283 69.2596C84.899 68.3889 84.899 66.9776 84.0283 66.1066Z" fill="white"/>
<path d="M114.968 88.2124C114.968 86.9809 113.97 85.983 112.738 85.983H105.209V69.4308C105.209 68.1993 104.211 67.2014 102.979 67.2014C101.748 67.2014 100.75 68.1993 100.75 69.4308V88.2124C100.75 89.4439 101.748 90.4418 102.979 90.4418H112.738C113.969 90.4418 114.968 89.4439 114.968 88.2124Z" fill="white"/>
<path d="M145.253 87.8445C146.482 87.7699 147.418 86.7131 147.343 85.4843C145.925 62.0897 126.438 43.7638 102.98 43.7638C78.4709 43.7638 58.5312 63.7035 58.5312 88.2128C58.5312 112.722 78.4709 132.661 102.98 132.661C124.938 132.661 143.674 116.574 146.933 94.8638C147.116 93.6462 146.277 92.511 145.059 92.3282C143.845 92.146 142.706 92.984 142.524 94.2021C139.596 113.706 122.755 128.203 102.98 128.203C80.9295 128.203 62.99 110.264 62.99 88.2131C62.99 66.1626 80.9295 48.2229 102.98 48.2229C124.085 48.2229 141.617 64.7088 142.893 85.7548C142.967 86.983 144.023 87.9158 145.253 87.8445V87.8445Z" fill="white"/>
<path d="M102.979 31C95.1375 31 87.4544 32.6269 80.3828 35.6692H41.0477C39.8165 35.6692 38.8184 36.6671 38.8184 37.8986C38.8184 39.1301 39.8165 40.128 41.0477 40.128H71.9956C67.8111 42.8211 63.959 46.0695 60.5626 49.8196C59.7363 50.7319 59.8058 52.1417 60.7184 52.9684C61.6313 53.7951 63.0405 53.7252 63.8675 52.8126C73.8558 41.784 88.1117 35.4588 102.979 35.4588C132.068 35.4588 155.733 59.1239 155.733 88.2124C155.733 117.301 132.068 140.966 102.979 140.966C73.8908 140.966 50.2257 117.301 50.2257 88.2124C50.2257 78.0262 53.1355 68.1395 58.64 59.6209C59.3082 58.5868 59.0116 57.2069 57.9774 56.5387C56.9433 55.8708 55.5635 56.1668 54.8949 57.2013C48.9231 66.4422 45.7669 77.1656 45.7669 88.2124C45.7669 108.356 56.232 126.1 72.0098 136.297H41.048C39.8168 136.297 38.8187 137.295 38.8187 138.526C38.8187 139.758 39.8168 140.756 41.048 140.756H80.3522C87.296 143.757 94.9464 145.425 102.98 145.425C134.526 145.425 160.192 119.759 160.192 88.2124C160.192 56.6653 134.526 31 102.979 31V31Z" fill="white"/>
</svg>
