<svg width="32" height="21" viewBox="0 0 32 21" fill="none" xmlns="http://www.w3.org/2000/svg">
<path fill-rule="evenodd" clip-rule="evenodd" d="M3 21H4V19H3V21ZM31 9.4V4C31 1.8 29.2 0 27 0H5C2.8 0 1 1.8 1 4V9.4C0.4 10.1 0 11 0 12V19H32V12C32 11 31.6 10.1 31 9.4ZM2 4C2 2.3 3.3 1 5 1H27C28.7 1 30 2.3 30 4V8.6C29.4 8.2 28.7 8 28 8H27V7C27 5.3 25.7 4 24 4H20C18.3 4 17 5.3 17 7V8H15V7C15 5.3 13.7 4 12 4H8C6.3 4 5 5.3 5 7V8H4C3.3 8 2.6 8.2 2 8.6V4ZM26 7V8H18V7C18 5.9 18.9 5 20 5H24C25.1 5 26 5.9 26 7ZM14 7V8H6V7C6 5.9 6.9 5 8 5H12C13.1 5 14 5.9 14 7ZM31 18H1V13H31V18ZM1 12C1 10.3 2.3 9 4 9H28C29.7 9 31 10.3 31 12H1ZM28 21H29V19H28V21Z" fill="black"/>
</svg>
