<svg width="800" height="501" viewBox="0 0 800 501" fill="none" xmlns="http://www.w3.org/2000/svg">
<rect width="800" height="501" fill="#72BF44"/>
<mask id="mask0_320_7836" style="mask-type:alpha" maskUnits="userSpaceOnUse" x="0" y="0" width="800" height="501">
<rect width="800" height="501" fill="#72BF44"/>
</mask>
<g mask="url(#mask0_320_7836)">
<path opacity="0.2" d="M772 501C751.368 501 732.143 489.882 721.825 471.982L649.706 351.609C628.307 324.109 617 291.159 617 256.273C617 170.655 686.532 101 772 101C857.468 101 927 170.655 927 256.273C927 291.159 915.693 324.109 894.294 351.609L822.076 472.145C811.857 489.882 792.632 501 772 501ZM772 123.727C699.042 123.727 639.687 183.186 639.687 256.273C639.687 286.255 649.47 314.559 667.983 338.132C668.278 338.509 668.55 338.9 668.795 339.314L741.377 460.455C747.747 471.509 759.445 478.273 772 478.273C784.555 478.273 796.253 471.509 802.528 460.618L875.209 339.309C875.454 338.895 875.722 338.505 876.022 338.127C894.534 314.555 904.317 286.25 904.317 256.268C904.313 183.186 844.958 123.727 772 123.727ZM772 322.086C735.773 322.086 706.302 292.564 706.302 256.273C706.302 219.982 735.773 190.459 772 190.459C808.227 190.459 837.698 219.982 837.698 256.273C837.698 292.564 808.227 322.086 772 322.086ZM772 213.186C748.283 213.186 728.989 232.518 728.989 256.273C728.989 280.027 748.287 299.359 772 299.359C795.713 299.359 815.011 280.032 815.011 256.273C815.011 232.514 795.717 213.186 772 213.186Z" fill="white"/>
</g>
</svg>
