<svg width="17" height="14" viewBox="0 0 17 14" fill="none" xmlns="http://www.w3.org/2000/svg">
<path d="M16.9998 9.89802C16.9997 9.89194 16.9996 9.88592 16.9991 9.87995C16.9987 9.87462 16.9979 9.8694 16.9972 9.86412C16.9965 9.85867 16.9959 9.85328 16.9949 9.84794C16.9939 9.84238 16.9926 9.83687 16.9913 9.83136C16.99 9.82643 16.9889 9.8215 16.9875 9.81657C16.9859 9.811 16.984 9.80561 16.9821 9.8001C16.9804 9.79534 16.9789 9.79058 16.9769 9.78593C16.9748 9.78071 16.9724 9.77555 16.9701 9.77045C16.9678 9.76569 16.9657 9.76093 16.9633 9.75628C16.9608 9.75152 16.958 9.74693 16.9553 9.74228C16.9525 9.73746 16.9497 9.73259 16.9466 9.72794C16.9438 9.7237 16.9408 9.71968 16.9378 9.71555C16.9343 9.71073 16.9308 9.70592 16.9271 9.70127C16.924 9.69748 16.9207 9.69387 16.9175 9.6902C16.9135 9.68561 16.9094 9.68102 16.905 9.6766C16.9016 9.6731 16.8979 9.66978 16.8943 9.66639C16.8899 9.66226 16.8854 9.65813 16.8807 9.65412C16.8766 9.65073 16.8723 9.64752 16.8681 9.64431C16.8635 9.64081 16.8589 9.63725 16.8542 9.63398C16.8492 9.6306 16.8441 9.6275 16.8389 9.62435C16.8344 9.62159 16.83 9.61872 16.8253 9.61614C16.8196 9.61293 16.8135 9.61006 16.8075 9.60714C16.8031 9.60496 16.7988 9.60284 16.7943 9.60083C16.7879 9.59808 16.7814 9.59567 16.7747 9.59326C16.7712 9.59188 16.7677 9.59027 16.7641 9.58907L15.5739 9.19121C15.3895 9.12966 15.1872 9.22087 15.1219 9.39507C15.0567 9.56928 15.1532 9.76047 15.3376 9.82213L15.8502 9.99353L14.7718 10.3843V4.97476C14.7718 4.967 14.7712 4.95941 14.7707 4.95178C14.7714 4.94258 14.7719 4.93331 14.7718 4.92394C14.7715 4.78397 14.6791 4.659 14.54 4.61065L9.17769 2.74595V1.11238L9.469 1.3878C9.53815 1.45322 9.62886 1.48591 9.7195 1.48591C9.81009 1.48591 9.90068 1.45328 9.96983 1.388C10.1082 1.2574 10.1083 1.04553 9.97007 0.914796L9.1228 0.113635C9.11783 0.108348 9.11309 0.102961 9.10769 0.0978748C9.03835 0.0323913 8.94746 -0.000199845 8.85663 9.21885e-07C8.76574 -0.000199845 8.67486 0.0324248 8.60546 0.0978748C8.59999 0.103028 8.59514 0.108549 8.59004 0.113936L7.74338 0.914796C7.60513 1.04553 7.60525 1.2574 7.74362 1.388C7.81271 1.45328 7.90336 1.48591 7.99388 1.48591C8.08459 1.48591 8.17524 1.45319 8.24445 1.3878L8.46946 1.17502V2.77293L3.36883 4.61202C3.36702 4.61268 3.36532 4.61348 3.36355 4.61416C3.35913 4.61583 3.35477 4.61764 3.35041 4.61944C3.34489 4.62179 3.33944 4.6243 3.33405 4.62691C3.33034 4.62871 3.32654 4.63045 3.32293 4.63239C3.31482 4.63664 3.30692 4.64116 3.29927 4.64595C3.29828 4.64658 3.29722 4.64718 3.29623 4.64782C3.28794 4.65314 3.27997 4.65886 3.27221 4.66478C3.26988 4.66659 3.26761 4.6685 3.26534 4.67037C3.2596 4.67499 3.25408 4.67971 3.2487 4.68466C3.24633 4.68683 3.24395 4.68897 3.24169 4.69122C3.23619 4.69654 3.23092 4.70206 3.22585 4.70771C3.22415 4.70955 3.22239 4.71133 3.22075 4.7132C3.21441 4.72056 3.20839 4.72816 3.20273 4.73599C3.20089 4.7385 3.19929 4.74111 3.19755 4.74365C3.1938 4.74917 3.19015 4.75476 3.18672 4.76051C3.18459 4.764 3.18264 4.76754 3.1807 4.77109C3.17783 4.77631 3.17514 4.78163 3.17259 4.78701C3.17085 4.79063 3.16904 4.79421 3.16745 4.79789C3.16377 4.80636 3.1604 4.81496 3.15743 4.82372C3.15654 4.82654 3.15584 4.82941 3.15499 4.83222C3.15289 4.83898 3.15102 4.8458 3.14943 4.8527C3.14858 4.85635 3.14786 4.86003 3.14715 4.86371C3.14585 4.87044 3.14475 4.87719 3.14386 4.88402C3.14344 4.8873 3.14298 4.89051 3.14266 4.89379C3.1417 4.90376 3.14103 4.9138 3.14099 4.92394C3.14099 4.92407 3.14099 4.92421 3.14099 4.92437C3.14099 4.92448 3.14099 4.92457 3.14099 4.92468V10.6525L1.3444 10.1084L1.96186 9.86641C2.14256 9.79563 2.22823 9.59985 2.15332 9.42915C2.07835 9.25844 1.87123 9.1775 1.6905 9.24823L0.283771 9.79941C0.251081 9.81221 0.221614 9.82919 0.195547 9.84932C0.0308234 9.92727 -0.0446146 10.1132 0.02714 10.2764L0.611836 11.6062C0.66847 11.7349 0.800184 11.8126 0.939055 11.8126C0.984318 11.8126 1.03036 11.8043 1.07477 11.7869C1.25543 11.7159 1.34104 11.5201 1.26599 11.3495L0.980845 10.701L3.42968 11.4427C3.45167 11.4494 3.47384 11.4537 3.49594 11.4562L7.72583 12.7364C7.71193 12.8029 7.7044 12.8716 7.7044 12.9419C7.7044 13.5253 8.20687 14 8.82439 14C9.44095 14 9.94251 13.5253 9.94251 12.9419C9.94251 12.9184 9.94142 12.8951 9.93978 12.8719L13.369 11.6093C13.3711 11.6086 13.3732 11.6081 13.3753 11.6074L16.1193 10.6127L16.0518 10.9043C16.01 11.0848 16.1309 11.2632 16.3221 11.3027C16.3476 11.308 16.3731 11.3105 16.3981 11.3105C16.5609 11.3105 16.7075 11.2037 16.7437 11.0473L16.9919 9.97609C16.9927 9.9727 16.993 9.96943 16.9937 9.96605C16.9951 9.95911 16.9964 9.95223 16.9974 9.94534C16.9979 9.94104 16.9982 9.9368 16.9985 9.93249C16.9992 9.92578 16.9998 9.91907 16.9999 9.91242C17.0001 9.9076 16.9999 9.90278 16.9998 9.89802ZM8.46946 11.9395C8.32872 11.984 8.20049 12.0541 8.09078 12.1441L3.84922 10.8604V5.41274H3.84926L8.46946 7.10027V11.9395ZM8.46946 6.38273L4.48283 4.92665L8.46946 3.48919V6.38273ZM9.17781 3.45908L13.3982 4.92668L9.17781 6.41331V3.45908ZM14.0636 10.6353L9.67111 12.2526C9.54082 12.1098 9.37107 12.0002 9.17781 11.9392V7.12751L14.0636 5.40651V10.6353Z" fill="white"/>
</svg>
