<svg width="842" height="739" viewBox="0 0 842 739" fill="none" xmlns="http://www.w3.org/2000/svg">
<rect width="842" height="739" fill="#72BF44"/>
<mask id="mask0_354_6881" style="mask-type:alpha" maskUnits="userSpaceOnUse" x="0" y="0" width="842" height="739">
<rect width="842" height="739" fill="#72BF44"/>
</mask>
<g mask="url(#mask0_354_6881)">
<g opacity="0.2">
<path fill-rule="evenodd" clip-rule="evenodd" d="M108.775 36.6099C123.531 8.34759 109.484 -25.1773 93.3375 -41.3239C64.436 -70.2254 17.5775 -70.2254 -11.3239 -41.3239C-40.2254 -12.4225 -40.2254 34.436 -11.3239 63.3375C5.50958 80.171 38.4606 93.6457 66.6201 78.7925C69.5139 77.2661 70.9618 76.5024 71.6695 76.2178C74.6574 75.0161 76.2292 74.8331 79.4133 75.3164C80.1674 75.4308 81.1539 75.6865 83.1266 76.1978C89.0451 77.7318 92.0053 78.4991 94.1624 78.4214C101.919 78.142 108.142 71.9187 108.421 64.1624C108.499 62.0053 107.732 59.0461 106.198 53.1276C105.687 51.155 105.431 50.1682 105.317 49.4184C104.832 46.2346 105.006 44.7082 106.197 41.7159C106.477 41.0111 107.243 39.5441 108.775 36.6099ZM17.7532 9.95523C17.7532 14.0425 14.4398 17.3559 10.3525 17.3559C6.26523 17.3559 2.95183 14.0425 2.95183 9.95523C2.95183 5.86795 6.26523 2.55455 10.3525 2.55455C14.4398 2.55455 17.7532 5.86795 17.7532 9.95523ZM47.3559 9.95523C47.3559 14.0425 44.0425 17.3559 39.9552 17.3559C35.868 17.3559 32.5546 14.0425 32.5546 9.95523C32.5546 5.86795 35.868 2.55455 39.9552 2.55455C44.0425 2.55455 47.3559 5.86795 47.3559 9.95523ZM69.5579 17.3559C73.6452 17.3559 76.9586 14.0425 76.9586 9.95523C76.9586 5.86795 73.6452 2.55455 69.5579 2.55455C65.4707 2.55455 62.1573 5.86795 62.1573 9.95523C62.1573 14.0425 65.4707 17.3559 69.5579 17.3559Z" fill="white"/>
</g>
</g>
</svg>
