<svg width="155" height="49" viewBox="0 0 155 49" fill="none" xmlns="http://www.w3.org/2000/svg">
<path fill-rule="evenodd" clip-rule="evenodd" d="M3 49H9V48H3V49ZM146 49H152V48H146V49ZM121 11H120V13H118V14H120V16H121V14H123V13H121V11ZM151 18H144V5C144 2.2 141.8 0 139 0H16C13.2 0 11 2.2 11 5V18H4C1.8 18 0 19.8 0 22V47H12V45H143V47H155V22C155 19.8 153.2 18 151 18ZM11 23H1V24H11V46H1V22C1 20.3 2.3 19 4 19H11V23ZM143 44H12V37H143V44ZM143 36H12V27H143V36ZM143 18V26H12V5C12 2.8 13.8 1 16 1H55V21H56V1H98V21H99V1H139C141.2 1 143 2.8 143 5V18ZM154 46H144V24H154V46ZM154 23H144V19H151C152.7 19 154 20.3 154 22V23ZM78 11H77V13H75V14H77V16H78V14H80V13H78V11ZM36 11H35V13H33V14H35V16H36V14H38V13H36V11Z" fill="#383838"/>
</svg>
