<svg width="57" height="48" viewBox="0 0 57 48" fill="none" xmlns="http://www.w3.org/2000/svg">
<path fill-rule="evenodd" clip-rule="evenodd" d="M48 48H54V47H48V48ZM3 48H9V47H3V48ZM19 14H38V13H19V14ZM53 17H51V6C51 2.7 48.3 0 45 0H12C8.7 0 6 2.7 6 6V17H4C1.8 17 0 18.8 0 21V46H12V44H45V46H57V21C57 18.8 55.2 17 53 17ZM11 22H1V23H11V45H1V21C1 19.3 2.3 18 4 18H8C9.7 18 11 19.3 11 21V22ZM45 43H12V36H45V43ZM45 35H12V26H45V35ZM45 25H12V21C12 18.8 10.2 17 8 17H7V6C7 3.2 9.2 1 12 1H45C47.8 1 50 3.2 50 6V17H49C46.8 17 45 18.8 45 21V25ZM56 45H46V23H56V45ZM56 22H46V21C46 19.3 47.3 18 49 18H53C54.7 18 56 19.3 56 21V22Z" fill="#383838"/>
</svg>
