<svg width="40" height="40" viewBox="0 0 40 40" fill="none" xmlns="http://www.w3.org/2000/svg">
<circle cx="20" cy="20" r="20" fill="#F2F2F2"/>
<path d="M12.6923 30.293L12.3216 30.945L12.6923 30.293ZM10.4857 20.9894L11.2287 21.0916L11.2287 21.0916L10.4857 20.9894ZM10.2954 27.5126L9.59653 27.7847L10.2954 27.5126ZM29.5143 20.9894L30.2573 20.8872L29.5143 20.9894ZM29.7046 27.5126L30.4035 27.7847L29.7046 27.5126ZM27.3077 30.293L27.6784 30.945L27.3077 30.293ZM25.9985 13.9003L25.6834 14.5809L25.6834 14.5809L25.9985 13.9003ZM28.3201 15.942L28.9542 15.5415L28.3201 15.942ZM14.0015 13.9003L14.3166 14.5809L14.3166 14.5809L14.0015 13.9003ZM11.6799 15.942L11.0458 15.5415L11.6799 15.942ZM24.3563 17.45C24.7705 17.45 25.1063 17.1142 25.1063 16.7C25.1063 16.2858 24.7705 15.95 24.3563 15.95V17.45ZM15.6437 15.95C15.2295 15.95 14.8937 16.2858 14.8937 16.7C14.8937 17.1142 15.2295 17.45 15.6437 17.45V15.95ZM24.3563 13.491L24.2772 14.2368L24.3563 13.491ZM19.1156 14.15H20.8844V12.65H19.1156V14.15ZM20.8844 30.25H19.1156V31.75H20.8844V30.25ZM19.1156 30.25C17.3757 30.25 16.119 30.2493 15.1402 30.1644C14.1691 30.0802 13.5498 29.9177 13.0629 29.641L12.3216 30.945C13.0785 31.3753 13.9443 31.5663 15.0106 31.6588C16.0693 31.7507 17.4024 31.75 19.1156 31.75V30.25ZM9.74273 20.8872C9.50699 22.6015 9.32313 23.934 9.26762 25.0046C9.21173 26.0824 9.27995 26.9715 9.59653 27.7847L10.9943 27.2405C10.7887 26.7123 10.7145 26.067 10.7656 25.0822C10.817 24.0902 10.9895 22.8318 11.2287 21.0916L9.74273 20.8872ZM13.0629 29.641C12.1219 29.106 11.3907 28.2587 10.9943 27.2405L9.59653 27.7847C10.1171 29.1219 11.079 30.2386 12.3216 30.945L13.0629 29.641ZM28.7713 21.0916C29.0105 22.8318 29.183 24.0902 29.2344 25.0822C29.2855 26.067 29.2113 26.7123 29.0057 27.2405L30.4035 27.7847C30.72 26.9715 30.7883 26.0824 30.7324 25.0046C30.6769 23.934 30.493 22.6015 30.2573 20.8872L28.7713 21.0916ZM20.8844 31.75C22.5976 31.75 23.9307 31.7507 24.9894 31.6588C26.0557 31.5663 26.9215 31.3753 27.6784 30.945L26.9371 29.641C26.4502 29.9177 25.8309 30.0802 24.8598 30.1644C23.881 30.2493 22.6243 30.25 20.8844 30.25V31.75ZM29.0057 27.2405C28.6093 28.2587 27.8781 29.106 26.9371 29.641L27.6784 30.945C28.921 30.2386 29.8829 29.1219 30.4035 27.7847L29.0057 27.2405ZM30.2573 20.8872C30.0739 19.5534 29.9311 18.5116 29.7513 17.6783C29.5696 16.836 29.3395 16.1516 28.9542 15.5415L27.686 16.3425C27.9399 16.7446 28.122 17.2388 28.2851 17.9946C28.4501 18.7594 28.5847 19.7352 28.7713 21.0916L30.2573 20.8872ZM25.6834 14.5809C26.5037 14.9607 27.1993 15.572 27.686 16.3425L28.9542 15.5415C28.3142 14.5282 27.3976 13.7216 26.3136 13.2197L25.6834 14.5809ZM11.2287 21.0916C11.4153 19.7352 11.5499 18.7594 11.7149 17.9946C11.878 17.2388 12.0601 16.7446 12.314 16.3425L11.0458 15.5415C10.6605 16.1516 10.4304 16.836 10.2487 17.6783C10.0689 18.5116 9.92614 19.5534 9.74273 20.8872L11.2287 21.0916ZM13.6864 13.2197C12.6024 13.7216 11.6858 14.5282 11.0458 15.5415L12.314 16.3425C12.8007 15.572 13.4963 14.9607 14.3166 14.5809L13.6864 13.2197ZM24.3563 15.95H15.6437V17.45H24.3563V15.95ZM20 9.75C21.9847 9.75 23.6063 11.3771 23.6063 13.4H25.1063C25.1063 10.5628 22.8272 8.25 20 8.25V9.75ZM20 8.25C17.1728 8.25 14.8937 10.5628 14.8937 13.4H16.3937C16.3937 11.3771 18.0153 9.75 20 9.75V8.25ZM16.3937 13.491V13.4H14.8937V13.491H16.3937ZM19.1156 12.65C17.6091 12.65 16.4702 12.649 15.5645 12.7451L15.7228 14.2368C16.5307 14.151 17.5755 14.15 19.1156 14.15V12.65ZM15.5645 12.7451C14.8579 12.8202 14.253 12.9574 13.6864 13.2197L14.3166 14.5809C14.6869 14.4095 15.1181 14.301 15.7228 14.2368L15.5645 12.7451ZM23.6063 13.4V13.491H25.1063V13.4H23.6063ZM20.8844 14.15C22.4245 14.15 23.4693 14.151 24.2772 14.2368L24.4355 12.7451C23.5298 12.649 22.3909 12.65 20.8844 12.65V14.15ZM24.2772 14.2368C24.8819 14.301 25.3131 14.4095 25.6834 14.5809L26.3136 13.2197C25.747 12.9574 25.1421 12.8202 24.4355 12.7451L24.2772 14.2368Z" fill="#383838"/>
</svg>
