<svg width="40" height="40" viewBox="0 0 40 40" fill="none" xmlns="http://www.w3.org/2000/svg">
<circle cx="20" cy="20" r="20" fill="#F2F2F2"/>
<path d="M12.9039 31.2789L12.6053 31.9669H12.6053L12.9039 31.2789ZM9.65672 27.8771L8.95926 28.1528L9.65672 27.8771ZM30.3433 27.8771L31.0407 28.1528L30.3433 27.8771ZM27.0961 31.2789L27.3947 31.9669L27.0961 31.2789ZM9.2 19.1574L9.94706 19.2238L9.98376 18.8106L9.65337 18.5599L9.2 19.1574ZM29 13.7574V13.0074V13.7574ZM20.9213 12.4243L21.4517 12.9546L20.9213 12.4243ZM23.4669 9.87868L23.9972 10.409V10.409L23.4669 9.87868ZM27.7095 9.87868L27.1792 10.409V10.409L27.7095 9.87868ZM28.0202 13.7573L28.0202 14.5073L28.403 14.5073L28.6276 14.1973L28.0202 13.7573ZM19.2669 12.4243L18.7366 12.9546L19.2669 12.4243ZM16.7213 9.8787L16.191 10.409L16.7213 9.8787ZM12.4787 9.8787L13.009 10.409L12.4787 9.8787ZM20 30.5574H20.75H20ZM9.16103 19.1278L8.70089 19.7201L9.16103 19.1278ZM30.7225 19.2139L30.2914 18.6002L30.7225 19.2139ZM18.2 31.0074C16.7914 31.0074 15.7743 31.0069 14.9705 30.9495C14.1742 30.8925 13.6438 30.7824 13.2025 30.5909L12.6053 31.9669C13.2666 32.2538 13.9865 32.3829 14.8636 32.4456C15.7333 32.5078 16.8129 32.5074 18.2 32.5074V31.0074ZM8.45004 22.3288C8.45004 23.7834 8.44966 24.9102 8.50869 25.8168C8.56813 26.7295 8.69007 27.472 8.95926 28.1528L10.3542 27.6013C10.1667 27.127 10.0603 26.5598 10.0055 25.7193C9.9504 24.8728 9.95004 23.803 9.95004 22.3288H8.45004ZM13.2025 30.5909C11.9213 30.0349 10.8928 28.9635 10.3542 27.6013L8.95926 28.1528C9.63858 29.871 10.9461 31.2469 12.6053 31.9669L13.2025 30.5909ZM30.05 22.3288C30.05 23.803 30.0496 24.8727 29.9945 25.7193C29.9398 26.5598 29.8333 27.127 29.6458 27.6013L31.0407 28.1528C31.3099 27.472 31.4319 26.7295 31.4913 25.8168C31.5504 24.9102 31.55 23.7834 31.55 22.3288H30.05ZM21.8 32.5074C23.1871 32.5074 24.2667 32.5078 25.1364 32.4456C26.0135 32.3829 26.7334 32.2538 27.3947 31.9669L26.7975 30.5909C26.3562 30.7824 25.8258 30.8925 25.0295 30.9495C24.2257 31.0069 23.2086 31.0074 21.8 31.0074V32.5074ZM29.6458 27.6013C29.1072 28.9635 28.0787 30.0349 26.7975 30.5909L27.3947 31.9669C29.0539 31.2469 30.3614 29.871 31.0407 28.1528L29.6458 27.6013ZM9.95004 22.3288C9.95004 20.5796 9.86802 20.1134 9.94706 19.2238L8.45294 19.091C8.36702 20.0581 8.45004 20.767 8.45004 22.3288H9.95004ZM29 14.5074C30.2426 14.5074 31.25 15.5147 31.25 16.7574H32.75C32.75 14.6863 31.0711 13.0074 29 13.0074V14.5074ZM11 13.0074C8.92893 13.0074 7.25 14.6863 7.25 16.7574H8.75C8.75 15.5147 9.75736 14.5074 11 14.5074V13.0074ZM21.4517 12.9546L23.9972 10.409L22.9366 9.34835L20.391 11.8939L21.4517 12.9546ZM23.9972 10.409C24.8759 9.53033 26.3005 9.53033 27.1792 10.409L28.2399 9.34835C26.7754 7.88388 24.401 7.88388 22.9366 9.34835L23.9972 10.409ZM20.391 11.8939C20.0135 12.2714 19.4667 12.8586 19.2762 13.561L20.7238 13.9537C20.7982 13.6796 21.0623 13.344 21.4517 12.9546L20.391 11.8939ZM27.1792 10.409C27.9713 11.2011 28.0497 12.4382 27.4128 13.3173L28.6276 14.1973C29.69 12.7308 29.5614 10.6698 28.2399 9.34835L27.1792 10.409ZM19.7973 11.894L17.2517 9.34837L16.191 10.409L18.7366 12.9546L19.7973 11.894ZM17.2517 9.34837C15.7872 7.8839 13.4128 7.8839 11.9484 9.34837L13.009 10.409C13.8877 9.53035 15.3123 9.53035 16.191 10.409L17.2517 9.34837ZM18.7366 12.9546C19.0016 13.2196 19.1669 13.5509 19.2762 13.9537L20.7238 13.561C20.5682 12.9872 20.2991 12.3958 19.7973 11.894L18.7366 12.9546ZM11.9484 9.34837C10.6269 10.6698 10.4982 12.7308 11.5607 14.1974L12.7754 13.3173C12.1385 12.4382 12.2169 11.2011 13.009 10.409L11.9484 9.34837ZM19.25 13.7574L19.25 30.5574H20.75L20.75 13.7574H19.25ZM12.1681 14.5074L20 14.5074L20 13.0074L12.1681 13.0074L12.1681 14.5074ZM11 19.0074C10.4795 19.0074 10.0021 18.8315 9.62117 18.5355L8.70089 19.7201C9.33573 20.2133 10.1346 20.5074 11 20.5074V19.0074ZM9.62117 18.5355C9.08971 18.1226 8.75 17.4799 8.75 16.7574H7.25C7.25 17.9626 7.81943 19.0352 8.70089 19.7201L9.62117 18.5355ZM9.65337 18.5599L9.6144 18.5303L8.70766 19.7253L8.74663 19.7548L9.65337 18.5599ZM21.8 31.0074H20V32.5074H21.8V31.0074ZM20 31.0074H18.2V32.5074H20V31.0074ZM19.25 30.5574L19.25 31.7574L20.75 31.7574L20.75 30.5574L19.25 30.5574ZM29 19.0074H20V20.5074H29V19.0074ZM20 19.0074H11V20.5074H20V19.0074ZM31.25 16.7574C31.25 17.5186 30.8726 18.1919 30.2914 18.6002L31.1536 19.8276C32.1175 19.1505 32.75 18.0278 32.75 16.7574H31.25ZM30.2914 18.6002C29.926 18.8568 29.4817 19.0074 29 19.0074V20.5074C29.8002 20.5074 30.544 20.2558 31.1536 19.8276L30.2914 18.6002ZM31.55 22.3288C31.55 20.7136 31.5505 20.0835 31.4697 19.1493L29.9753 19.2785C30.0495 20.1368 30.05 20.7007 30.05 22.3288H31.55ZM20 14.5074L27.7095 14.5074L27.7095 13.0074L20 13.0074L20 14.5074ZM27.7096 14.5074L28.0202 14.5073L28.0201 13.0073L27.7095 13.0074L27.7096 14.5074ZM27.7095 14.5074L29 14.5074L29 13.0074L27.7095 13.0074L27.7095 14.5074ZM12.1681 13.0074H11V14.5074H12.1681V13.0074ZM11 14.5074L15.5 14.5074L15.5 13.0074L11 13.0074L11 14.5074ZM15.5 14.5074L20 14.5074L20 13.0074L15.5 13.0074L15.5 14.5074ZM12.1681 14.5074L15.5 14.5074L15.5 13.0074L12.1681 13.0074L12.1681 14.5074ZM20 14.5074L28.0202 14.5073L28.0202 13.0073L20 13.0074L20 14.5074Z" fill="#383838"/>
</svg>
