<svg width="40" height="40" viewBox="0 0 40 40" fill="none" xmlns="http://www.w3.org/2000/svg">
<circle cx="20" cy="20" r="20" fill="#F2F2F2"/>
<path d="M10.4328 25.0156L11.1076 24.6883H11.1076L10.4328 25.0156ZM11.389 19.9608L11.8976 20.512L11.389 19.9608ZM12.7445 16.2541L12.0003 16.3472L12.7445 16.2541ZM27.5602 20.1043L28.0706 19.5547V19.5547L27.5602 20.1043ZM28.2953 25.8253L27.6626 25.4226L28.2953 25.8253ZM26.077 16.1227L26.8212 16.2157V16.2157L26.077 16.1227ZM27.5083 20.0561L26.998 20.6057L26.998 20.6057L27.5083 20.0561ZM10.555 25.2674L9.8802 25.5948H9.8802L10.555 25.2674ZM26.1534 15.5117L25.4091 15.4187L26.1534 15.5117ZM12.6507 15.5037L13.3949 15.4107L12.6507 15.5037ZM15.4175 28.7225L14.7697 29.1004L15.4175 28.7225ZM15.5926 27.534C15.3838 27.1763 14.9246 27.0554 14.5668 27.2641C14.209 27.4728 14.0882 27.9321 14.2969 28.2899L15.5926 27.534ZM25.0485 28.2899C25.2572 27.9321 25.1364 27.4728 24.7786 27.2641C24.4208 27.0554 23.9616 27.1763 23.7529 27.534L25.0485 28.2899ZM23.9279 28.7225L24.5757 29.1004L23.9279 28.7225ZM18.3921 9.75H20.405V8.25H18.3921V9.75ZM24.4939 27.1619H14.777V28.6619H24.4939V27.1619ZM25.4091 15.4187L25.3328 16.0297L26.8212 16.2157L26.8976 15.6047L25.4091 15.4187ZM26.998 20.6057L27.0498 20.6539L28.0706 19.5547L28.0187 19.5066L26.998 20.6057ZM13.4887 16.1611L13.3949 15.4107L11.9065 15.5968L12.0003 16.3472L13.4887 16.1611ZM11.2298 24.9401L11.1076 24.6883L9.75804 25.3429L9.8802 25.5948L11.2298 24.9401ZM11.1076 24.6883C10.4217 23.2742 10.7426 21.5778 11.8976 20.512L10.8804 19.4096C9.23945 20.9239 8.78356 23.3339 9.75804 25.3429L11.1076 24.6883ZM12.0003 16.3472C12.143 17.4889 11.726 18.6293 10.8804 19.4096L11.8976 20.512C13.099 19.4034 13.6915 17.7832 13.4887 16.1611L12.0003 16.3472ZM27.0498 20.6539C28.378 21.8873 28.6358 23.8934 27.6626 25.4226L28.928 26.228C30.2899 24.0881 29.9292 21.2808 28.0706 19.5547L27.0498 20.6539ZM25.3328 16.0297C25.1197 17.734 25.7394 19.4368 26.998 20.6057L28.0187 19.5066C27.1136 18.666 26.668 17.4414 26.8212 16.2157L25.3328 16.0297ZM14.777 27.1619C13.2666 27.1619 11.889 26.299 11.2298 24.9401L9.8802 25.5948C10.7902 27.4707 12.6919 28.6619 14.777 28.6619V27.1619ZM24.4939 28.6619C26.2909 28.6619 27.9632 27.7439 28.928 26.228L27.6626 25.4226C26.9731 26.5059 25.778 27.1619 24.4939 27.1619V28.6619ZM20.405 9.75C23.4384 9.75 25.7854 12.4086 25.4091 15.4187L26.8976 15.6047C27.3857 11.6994 24.3406 8.25 20.405 8.25V9.75ZM18.3921 8.25C14.4607 8.25 11.4189 11.6957 11.9065 15.5968L13.3949 15.4107C13.0192 12.4049 15.3629 9.75 18.3921 9.75V8.25ZM16.0654 28.3446L15.5926 27.534L14.2969 28.2899L14.7697 29.1004L16.0654 28.3446ZM23.7529 27.534L23.2801 28.3446L24.5757 29.1004L25.0485 28.2899L23.7529 27.534ZM14.7697 29.1004C15.9463 31.1174 17.77 32.2079 19.6727 32.2079C21.5754 32.2079 23.3991 31.1174 24.5757 29.1004L23.2801 28.3446C22.3291 29.9748 20.9614 30.7079 19.6727 30.7079C18.384 30.7079 17.0164 29.9748 16.0654 28.3446L14.7697 29.1004Z" fill="#383838"/>
</svg>
