<svg width="40" height="40" viewBox="0 0 40 40" fill="none" xmlns="http://www.w3.org/2000/svg">
<circle cx="20" cy="20" r="20" fill="#F2F2F2"/>
<path d="M29.0854 21.4918L29.7001 21.9215L29.0854 21.4918ZM29.0854 17.5082L28.4708 17.938L29.0854 17.5082ZM10.9146 21.4918L11.5292 21.062L10.9146 21.4918ZM10.9146 17.5082L10.2999 17.0785L10.9146 17.5082ZM10 19.5H9.25H10ZM10.2999 21.9215C11.197 23.2046 12.5318 24.8901 14.1639 26.2621C15.7865 27.6261 17.7865 28.75 20 28.75V27.25C18.2948 27.25 16.6304 26.3759 15.1291 25.1139C13.6373 23.8598 12.3888 22.2913 11.5292 21.062L10.2999 21.9215ZM20 28.75C22.2135 28.75 24.2135 27.6261 25.8361 26.2621C27.4682 24.8901 28.803 23.2046 29.7001 21.9215L28.4708 21.062C27.6112 22.2912 26.3627 23.8598 24.8709 25.1139C23.3696 26.3759 21.7052 27.25 20 27.25V28.75ZM29.7001 17.0785C28.803 15.7954 27.4682 14.1099 25.8361 12.7379C24.2135 11.3739 22.2135 10.25 20 10.25V11.75C21.7052 11.75 23.3696 12.6241 24.8709 13.8861C26.3627 15.1402 27.6112 16.7088 28.4708 17.938L29.7001 17.0785ZM20 10.25C17.7865 10.25 15.7865 11.3739 14.1639 12.7379C12.5318 14.1099 11.197 15.7954 10.2999 17.0785L11.5292 17.938C12.3888 16.7088 13.6373 15.1402 15.1291 13.8861C16.6304 12.6241 18.2948 11.75 20 11.75V10.25ZM29.7001 21.9215C30.2775 21.0958 30.75 20.4622 30.75 19.5H29.25C29.25 19.9053 29.1128 20.1438 28.4708 21.062L29.7001 21.9215ZM28.4708 17.938C29.1128 18.8562 29.25 19.0947 29.25 19.5H30.75C30.75 18.5378 30.2775 17.9042 29.7001 17.0785L28.4708 17.938ZM11.5292 21.062C10.8872 20.1438 10.75 19.9053 10.75 19.5H9.25C9.25 20.4622 9.72252 21.0958 10.2999 21.9215L11.5292 21.062ZM10.2999 17.0785C9.72252 17.9042 9.25 18.5378 9.25 19.5H10.75C10.75 19.0947 10.8872 18.8562 11.5292 17.938L10.2999 17.0785ZM16.1454 19.5C16.1454 21.6559 17.8527 23.4375 20 23.4375V21.9375C18.7181 21.9375 17.6454 20.8649 17.6454 19.5H16.1454ZM20 23.4375C22.1473 23.4375 23.8546 21.6559 23.8546 19.5H22.3546C22.3546 20.8649 21.2819 21.9375 20 21.9375V23.4375ZM23.8546 19.5C23.8546 17.3441 22.1473 15.5625 20 15.5625V17.0625C21.2819 17.0625 22.3546 18.1351 22.3546 19.5H23.8546ZM20 15.5625C17.8527 15.5625 16.1454 17.3441 16.1454 19.5H17.6454C17.6454 18.1351 18.7181 17.0625 20 17.0625V15.5625Z" fill="#383838"/>
</svg>
