<svg width="36" height="36" viewBox="0 0 36 36" fill="none" xmlns="http://www.w3.org/2000/svg">
<path d="M4.5 18C4.5 18.8284 5.17157 19.5 6 19.5C6.82843 19.5 7.5 18.8284 7.5 18C7.5 17.1716 6.82843 16.5 6 16.5C5.17157 16.5 4.5 17.1716 4.5 18ZM4.5 24C4.5 24.8284 5.17157 25.5 6 25.5C6.82843 25.5 7.5 24.8284 7.5 24C7.5 23.1716 6.82843 22.5 6 22.5C5.17157 22.5 4.5 23.1716 4.5 24ZM4.5 12C4.5 12.8284 5.17157 13.5 6 13.5C6.82843 13.5 7.5 12.8284 7.5 12C7.5 11.1716 6.82843 10.5 6 10.5C5.17157 10.5 4.5 11.1716 4.5 12ZM10.5 18C10.5 18.8284 11.1716 19.5 12 19.5H30C30.8284 19.5 31.5 18.8284 31.5 18C31.5 17.1716 30.8284 16.5 30 16.5H12C11.1716 16.5 10.5 17.1716 10.5 18ZM10.5 24C10.5 24.8284 11.1716 25.5 12 25.5H30C30.8284 25.5 31.5 24.8284 31.5 24C31.5 23.1716 30.8284 22.5 30 22.5H12C11.1716 22.5 10.5 23.1716 10.5 24ZM12 10.5C11.1716 10.5 10.5 11.1716 10.5 12C10.5 12.8284 11.1716 13.5 12 13.5H30C30.8284 13.5 31.5 12.8284 31.5 12C31.5 11.1716 30.8284 10.5 30 10.5H12Z" fill="#B7B7B7"/>
</svg>
