<svg width="98" height="22" viewBox="0 0 98 22" fill="none" xmlns="http://www.w3.org/2000/svg">
<path d="M9.09892 12.0362C9.02827 12.0362 7.54619 12.0367 6.86264 12.036C6.51074 12.0358 6.38519 11.9132 6.38519 11.5698C6.38474 10.6876 6.38452 9.80553 6.38519 8.92342C6.38542 8.58437 6.51817 8.45499 6.86557 8.45477C7.54912 8.45433 9.02309 8.45455 9.09892 8.45455C9.09892 8.39412 9.09869 7.12059 9.09892 6.53411C9.09937 5.66706 9.25889 4.8371 9.71317 4.07717C10.1782 3.29935 10.855 2.76655 11.7224 2.45848C12.2779 2.26102 12.8546 2.18226 13.4441 2.18182C14.1817 2.18138 14.9192 2.18204 15.657 2.18335C15.974 2.18378 16.1146 2.31971 16.1153 2.62931C16.1167 3.45906 16.1167 4.2888 16.1153 5.11833C16.1149 5.4312 15.9801 5.55688 15.6559 5.56037C15.0513 5.5667 14.4463 5.56277 13.8424 5.58633C13.2324 5.58633 12.9115 5.8752 12.9115 6.48742C12.8969 7.13499 12.9055 7.78321 12.9055 8.45433C12.9626 8.45433 14.6985 8.45412 15.5098 8.45433C15.8784 8.45433 16.0044 8.57717 16.0044 8.93652C16.0044 9.81383 16.0042 10.6914 16.0035 11.5687C16.0033 11.9228 15.8849 12.0358 15.5141 12.036C14.7028 12.0364 12.9736 12.0362 12.898 12.0362V19.137C12.898 19.5155 12.7752 19.6362 12.39 19.6362C11.4508 19.6362 10.5115 19.6364 9.57232 19.6362C9.23189 19.6362 9.09914 19.5079 9.09914 19.1778C9.09892 16.8652 9.09892 12.1174 9.09892 12.0362Z" fill="#3D6AD6"/>
<path d="M37.5361 16.2121H36.374V6.21799H41.9453V7.25021H37.5361V10.9074H41.6787V11.9397H37.5361V16.2121ZM48.043 16.2121L47.8174 15.1457H47.7627C47.389 15.6151 47.0153 15.9341 46.6416 16.1028C46.2725 16.2668 45.8099 16.3488 45.2539 16.3488C44.5111 16.3488 43.9277 16.1574 43.5039 15.7746C43.0846 15.3918 42.875 14.8472 42.875 14.1408C42.875 12.6278 44.085 11.8348 46.5049 11.7619L47.7764 11.7209V11.2561C47.7764 10.6682 47.6488 10.2352 47.3936 9.95724C47.1429 9.67469 46.7396 9.53342 46.1836 9.53342C45.5592 9.53342 44.8529 9.72482 44.0645 10.1076L43.7158 9.23947C44.085 9.03895 44.4883 8.88172 44.9258 8.76779C45.3678 8.65386 45.8099 8.59689 46.252 8.59689C47.1452 8.59689 47.806 8.79514 48.2344 9.19162C48.6673 9.5881 48.8838 10.2238 48.8838 11.0988V16.2121H48.043ZM45.4795 15.4123C46.1859 15.4123 46.7396 15.2186 47.1406 14.8313C47.5462 14.4439 47.749 13.9016 47.749 13.2043V12.5276L46.6143 12.5754C45.7119 12.6073 45.0602 12.7486 44.6592 12.9992C44.2627 13.2453 44.0645 13.6304 44.0645 14.1545C44.0645 14.5647 44.1875 14.8768 44.4336 15.091C44.6842 15.3052 45.0329 15.4123 45.4795 15.4123ZM54.2227 16.3488C53.138 16.3488 52.2972 16.0162 51.7002 15.3508C51.1077 14.6809 50.8115 13.7352 50.8115 12.5139C50.8115 11.2606 51.1123 10.2922 51.7139 9.60861C52.32 8.92502 53.1813 8.58322 54.2979 8.58322C54.6579 8.58322 55.0179 8.62196 55.3779 8.69943C55.738 8.77691 56.0205 8.86805 56.2256 8.97287L55.877 9.93674C55.6263 9.83648 55.3529 9.75445 55.0566 9.69064C54.7604 9.62228 54.4984 9.5881 54.2705 9.5881C52.7484 9.5881 51.9873 10.5588 51.9873 12.5002C51.9873 13.4208 52.1719 14.1272 52.541 14.6194C52.9147 15.1115 53.4661 15.3576 54.1953 15.3576C54.8197 15.3576 55.46 15.2232 56.1162 14.9543V15.9592C55.6149 16.219 54.9837 16.3488 54.2227 16.3488ZM61.0654 16.3488C59.958 16.3488 59.083 16.0116 58.4404 15.3371C57.8024 14.6626 57.4834 13.7261 57.4834 12.5276C57.4834 11.3199 57.7796 10.3606 58.3721 9.64963C58.9691 8.93869 59.7689 8.58322 60.7715 8.58322C61.7103 8.58322 62.4531 8.89312 63 9.51291C63.5469 10.1281 63.8203 10.9416 63.8203 11.9533V12.6711H58.6592C58.682 13.5507 58.903 14.2183 59.3223 14.674C59.7461 15.1298 60.3408 15.3576 61.1064 15.3576C61.9131 15.3576 62.7106 15.189 63.499 14.8518V15.8635C63.098 16.0367 62.7174 16.1597 62.3574 16.2326C62.002 16.3101 61.5713 16.3488 61.0654 16.3488ZM60.7578 9.53342C60.1562 9.53342 59.6755 9.72938 59.3154 10.1213C58.96 10.5132 58.7503 11.0556 58.6865 11.7483H62.6035C62.6035 11.0328 62.444 10.4859 62.125 10.1076C61.806 9.72482 61.3503 9.53342 60.7578 9.53342ZM69.248 8.59689C70.2324 8.59689 70.9958 8.93413 71.5381 9.60861C72.085 10.2785 72.3584 11.2287 72.3584 12.4592C72.3584 13.6897 72.0827 14.6467 71.5312 15.3303C70.9844 16.0093 70.2233 16.3488 69.248 16.3488C68.7604 16.3488 68.3138 16.26 67.9082 16.0822C67.5072 15.9 67.1699 15.622 66.8965 15.2483H66.8145L66.5752 16.2121H65.7617V5.57541H66.8965V8.15939C66.8965 8.73817 66.8783 9.2577 66.8418 9.71799H66.8965C67.4251 8.97059 68.209 8.59689 69.248 8.59689ZM69.084 9.54709C68.3092 9.54709 67.751 9.7704 67.4092 10.217C67.0674 10.6591 66.8965 11.4065 66.8965 12.4592C66.8965 13.5119 67.0719 14.2662 67.4229 14.7219C67.7738 15.1731 68.3366 15.3987 69.1113 15.3987C69.8086 15.3987 70.3281 15.1457 70.6699 14.6399C71.0117 14.1294 71.1826 13.398 71.1826 12.4455C71.1826 11.4703 71.0117 10.7434 70.6699 10.2649C70.3281 9.78635 69.7995 9.54709 69.084 9.54709ZM80.8145 12.4592C80.8145 13.6806 80.5068 14.6353 79.8916 15.3235C79.2764 16.007 78.4264 16.3488 77.3418 16.3488C76.6719 16.3488 76.0771 16.1916 75.5576 15.8772C75.0381 15.5627 74.637 15.1115 74.3545 14.5237C74.0719 13.9358 73.9307 13.2476 73.9307 12.4592C73.9307 11.2378 74.236 10.2876 74.8467 9.60861C75.4574 8.92502 76.305 8.58322 77.3896 8.58322C78.4378 8.58322 79.2695 8.93185 79.8848 9.62912C80.5046 10.3264 80.8145 11.2697 80.8145 12.4592ZM75.1064 12.4592C75.1064 13.4162 75.2979 14.1454 75.6807 14.6467C76.0635 15.148 76.6263 15.3987 77.3691 15.3987C78.112 15.3987 78.6748 15.1503 79.0576 14.6535C79.445 14.1522 79.6387 13.4208 79.6387 12.4592C79.6387 11.5067 79.445 10.7844 79.0576 10.2922C78.6748 9.79546 78.1074 9.54709 77.3555 9.54709C76.6126 9.54709 76.0521 9.7909 75.6738 10.2785C75.2956 10.7662 75.1064 11.4931 75.1064 12.4592ZM89.2773 12.4592C89.2773 13.6806 88.9697 14.6353 88.3545 15.3235C87.7393 16.007 86.8893 16.3488 85.8047 16.3488C85.1348 16.3488 84.54 16.1916 84.0205 15.8772C83.501 15.5627 83.0999 15.1115 82.8174 14.5237C82.5348 13.9358 82.3936 13.2476 82.3936 12.4592C82.3936 11.2378 82.6989 10.2876 83.3096 9.60861C83.9202 8.92502 84.7679 8.58322 85.8525 8.58322C86.9007 8.58322 87.7324 8.93185 88.3477 9.62912C88.9674 10.3264 89.2773 11.2697 89.2773 12.4592ZM83.5693 12.4592C83.5693 13.4162 83.7607 14.1454 84.1436 14.6467C84.5264 15.148 85.0892 15.3987 85.832 15.3987C86.5749 15.3987 87.1377 15.1503 87.5205 14.6535C87.9079 14.1522 88.1016 13.4208 88.1016 12.4592C88.1016 11.5067 87.9079 10.7844 87.5205 10.2922C87.1377 9.79546 86.5703 9.54709 85.8184 9.54709C85.0755 9.54709 84.515 9.7909 84.1367 10.2785C83.7585 10.7662 83.5693 11.4931 83.5693 12.4592ZM92.3945 12.3772C92.5905 12.0992 92.889 11.7346 93.29 11.2834L95.71 8.71994H97.0566L94.0215 11.9123L97.2686 16.2121H95.8945L93.249 12.6711L92.3945 13.4094V16.2121H91.2734V5.57541H92.3945V11.2151C92.3945 11.4657 92.3763 11.8531 92.3398 12.3772H92.3945Z" fill="#3D6AD6"/>
</svg>
