<svg width="75" height="19" viewBox="0 0 75 19" fill="none" xmlns="http://www.w3.org/2000/svg">
<g clip-path="url(#clip0_462_15867)">
<path d="M17.3197 7.43517L9.97763 7.43481C9.65342 7.43481 9.39062 7.69757 9.39062 8.02178V10.3672C9.39062 10.6914 9.65342 10.9542 9.97759 10.9542H14.1122C13.6594 12.1292 12.8144 13.1131 11.7363 13.7384L13.4993 16.7902C16.3273 15.1547 17.9993 12.2849 17.9993 9.07239C17.9993 8.61497 17.9656 8.28799 17.8982 7.91979C17.8469 7.64006 17.604 7.43517 17.3197 7.43517Z" fill="#167EE6"/>
<path d="M9.00118 14.4783C6.97779 14.4783 5.2114 13.3727 4.26271 11.7368L1.21094 13.4958C2.76396 16.1874 5.67329 18 9.00118 18C10.6337 18 12.1742 17.5604 13.5012 16.7944V16.7902L11.7382 13.7383C10.9318 14.206 9.99859 14.4783 9.00118 14.4783Z" fill="#12B347"/>
<path d="M13.5 16.7944V16.7902L11.737 13.7383C10.9306 14.206 9.99749 14.4783 9 14.4783V18C10.6326 18 12.1731 17.5604 13.5 16.7944Z" fill="#0F993E"/>
<path d="M3.52174 9C3.52174 8.00265 3.79392 7.06957 4.26154 6.26319L1.20976 4.50418C0.439523 5.82701 0 7.36326 0 9C0 10.6367 0.439523 12.173 1.20976 13.4958L4.26154 11.7368C3.79392 10.9304 3.52174 9.99734 3.52174 9Z" fill="#FFD500"/>
<path d="M9.00118 3.52174C10.3206 3.52174 11.5326 3.99059 12.4793 4.77046C12.7128 4.96283 13.0522 4.94895 13.2662 4.73502L14.928 3.07318C15.1707 2.83046 15.1534 2.43316 14.8941 2.20823C13.3081 0.832254 11.2444 0 9.00118 0C5.67329 0 2.76396 1.81255 1.21094 4.50418L4.26271 6.26319C5.2114 4.62727 6.97779 3.52174 9.00118 3.52174Z" fill="#FF4B26"/>
<path d="M12.4781 4.77046C12.7116 4.96283 13.0511 4.94895 13.265 4.73502L14.9268 3.07318C15.1695 2.83046 15.1522 2.43316 14.893 2.20823C13.3069 0.832219 11.2432 0 9 0V3.52174C10.3194 3.52174 11.5314 3.99059 12.4781 4.77046Z" fill="#D93F21"/>
</g>
<path d="M33.7695 9.76367H37.167V14.624C36.6383 14.7926 36.1006 14.9202 35.5537 15.0068C35.0068 15.0934 34.3734 15.1367 33.6533 15.1367C32.1403 15.1367 30.9622 14.6878 30.1191 13.79C29.276 12.8877 28.8545 11.6253 28.8545 10.0029C28.8545 8.96387 29.0618 8.05469 29.4766 7.27539C29.8958 6.49154 30.4974 5.89453 31.2812 5.48438C32.0651 5.06966 32.9834 4.8623 34.0361 4.8623C35.1025 4.8623 36.096 5.05827 37.0166 5.4502L36.5654 6.47559C35.6631 6.09277 34.7949 5.90137 33.9609 5.90137C32.7441 5.90137 31.7939 6.26367 31.1104 6.98828C30.4268 7.71289 30.085 8.71777 30.085 10.0029C30.085 11.3519 30.4131 12.375 31.0693 13.0723C31.7301 13.7695 32.6986 14.1182 33.9746 14.1182C34.6673 14.1182 35.3441 14.0384 36.0049 13.8789V10.8027H33.7695V9.76367ZM45.8691 11.2471C45.8691 12.4684 45.5615 13.4232 44.9463 14.1113C44.3311 14.7949 43.4811 15.1367 42.3965 15.1367C41.7266 15.1367 41.1318 14.9795 40.6123 14.665C40.0928 14.3506 39.6917 13.8994 39.4092 13.3115C39.1266 12.7236 38.9854 12.0355 38.9854 11.2471C38.9854 10.0257 39.2907 9.07552 39.9014 8.39648C40.512 7.71289 41.3597 7.37109 42.4443 7.37109C43.4925 7.37109 44.3242 7.71973 44.9395 8.41699C45.5592 9.11426 45.8691 10.0576 45.8691 11.2471ZM40.1611 11.2471C40.1611 12.2041 40.3525 12.9333 40.7354 13.4346C41.1182 13.9359 41.681 14.1865 42.4238 14.1865C43.1667 14.1865 43.7295 13.9382 44.1123 13.4414C44.4997 12.9401 44.6934 12.2087 44.6934 11.2471C44.6934 10.2946 44.4997 9.57227 44.1123 9.08008C43.7295 8.58333 43.1621 8.33496 42.4102 8.33496C41.6673 8.33496 41.1068 8.57878 40.7285 9.06641C40.3503 9.55404 40.1611 10.2809 40.1611 11.2471ZM54.332 11.2471C54.332 12.4684 54.0244 13.4232 53.4092 14.1113C52.7939 14.7949 51.944 15.1367 50.8594 15.1367C50.1895 15.1367 49.5947 14.9795 49.0752 14.665C48.5557 14.3506 48.1546 13.8994 47.8721 13.3115C47.5895 12.7236 47.4482 12.0355 47.4482 11.2471C47.4482 10.0257 47.7536 9.07552 48.3643 8.39648C48.9749 7.71289 49.8226 7.37109 50.9072 7.37109C51.9554 7.37109 52.7871 7.71973 53.4023 8.41699C54.0221 9.11426 54.332 10.0576 54.332 11.2471ZM48.624 11.2471C48.624 12.2041 48.8154 12.9333 49.1982 13.4346C49.5811 13.9359 50.1439 14.1865 50.8867 14.1865C51.6296 14.1865 52.1924 13.9382 52.5752 13.4414C52.9626 12.9401 53.1562 12.2087 53.1562 11.2471C53.1562 10.2946 52.9626 9.57227 52.5752 9.08008C52.1924 8.58333 51.625 8.33496 50.873 8.33496C50.1302 8.33496 49.5697 8.57878 49.1914 9.06641C48.8132 9.55404 48.624 10.2809 48.624 11.2471ZM62.46 7.50781V8.22559L61.0723 8.38965C61.1999 8.54915 61.3138 8.75879 61.4141 9.01855C61.5143 9.27376 61.5645 9.56315 61.5645 9.88672C61.5645 10.6204 61.3138 11.2061 60.8125 11.6436C60.3112 12.0811 59.623 12.2998 58.748 12.2998C58.5247 12.2998 58.3151 12.2816 58.1191 12.2451C57.6361 12.5003 57.3945 12.8216 57.3945 13.209C57.3945 13.4141 57.4788 13.5667 57.6475 13.667C57.8161 13.7627 58.1055 13.8105 58.5156 13.8105H59.8418C60.653 13.8105 61.2751 13.9814 61.708 14.3232C62.1455 14.665 62.3643 15.1618 62.3643 15.8135C62.3643 16.6429 62.0316 17.2741 61.3662 17.707C60.7008 18.1445 59.7301 18.3633 58.4541 18.3633C57.4743 18.3633 56.7178 18.181 56.1846 17.8164C55.6559 17.4518 55.3916 16.9368 55.3916 16.2715C55.3916 15.8158 55.5374 15.4215 55.8291 15.0889C56.1208 14.7562 56.5309 14.5306 57.0596 14.4121C56.8682 14.3255 56.7064 14.1911 56.5742 14.0088C56.4466 13.8265 56.3828 13.6146 56.3828 13.373C56.3828 13.0996 56.4557 12.8604 56.6016 12.6553C56.7474 12.4502 56.9775 12.252 57.292 12.0605C56.9046 11.901 56.5879 11.6299 56.3418 11.2471C56.1003 10.8643 55.9795 10.4268 55.9795 9.93457C55.9795 9.11426 56.2256 8.48307 56.7178 8.04102C57.21 7.5944 57.9072 7.37109 58.8096 7.37109C59.2015 7.37109 59.5547 7.41667 59.8691 7.50781H62.46ZM56.4854 16.2578C56.4854 16.6634 56.6562 16.971 56.998 17.1807C57.3398 17.3903 57.8298 17.4951 58.4678 17.4951C59.4202 17.4951 60.1243 17.3516 60.5801 17.0645C61.0404 16.7819 61.2705 16.3968 61.2705 15.9092C61.2705 15.5036 61.1452 15.221 60.8945 15.0615C60.6439 14.9066 60.1722 14.8291 59.4795 14.8291H58.1191C57.6042 14.8291 57.2031 14.9521 56.916 15.1982C56.6289 15.4443 56.4854 15.7975 56.4854 16.2578ZM57.1006 9.90723C57.1006 10.4313 57.2487 10.8278 57.5449 11.0967C57.8411 11.3656 58.2536 11.5 58.7822 11.5C59.8896 11.5 60.4434 10.9622 60.4434 9.88672C60.4434 8.76107 59.8828 8.19824 58.7617 8.19824C58.2285 8.19824 57.8184 8.3418 57.5312 8.62891C57.2441 8.91602 57.1006 9.34212 57.1006 9.90723ZM65.1328 15H63.998V4.36328H65.1328V15ZM70.7041 15.1367C69.5967 15.1367 68.7217 14.7995 68.0791 14.125C67.4411 13.4505 67.1221 12.514 67.1221 11.3154C67.1221 10.1077 67.4183 9.14844 68.0107 8.4375C68.6077 7.72656 69.4076 7.37109 70.4102 7.37109C71.349 7.37109 72.0918 7.68099 72.6387 8.30078C73.1855 8.91602 73.459 9.72949 73.459 10.7412V11.459H68.2979C68.3206 12.3385 68.5417 13.0062 68.9609 13.4619C69.3848 13.9176 69.9795 14.1455 70.7451 14.1455C71.5518 14.1455 72.3493 13.9769 73.1377 13.6396V14.6514C72.7367 14.8245 72.3561 14.9476 71.9961 15.0205C71.6406 15.098 71.21 15.1367 70.7041 15.1367ZM70.3965 8.32129C69.7949 8.32129 69.3141 8.51725 68.9541 8.90918C68.5986 9.30111 68.389 9.84342 68.3252 10.5361H72.2422C72.2422 9.82064 72.0827 9.27376 71.7637 8.89551C71.4447 8.5127 70.9889 8.32129 70.3965 8.32129Z" fill="#167EE6"/>
<defs>
<clipPath id="clip0_462_15867">
<rect width="18" height="18" fill="white"/>
</clipPath>
</defs>
</svg>
