<svg width="24" height="24" fill="none" xmlns="http://www.w3.org/2000/svg"><path d="M12 2c5.514 0 10 4.486 10 10s-4.486 10-10 10S2 17.514 2 12 6.486 2 12 2Zm0-2C5.373 0 0 5.373 0 12s5.373 12 12 12 12-5.373 12-12S18.627 0 12 0Zm0 18v-1.511h-.5V18h-1v-1.511H8.016L8.266 15h.539c.442 0 .695-.425.695-.854V9.702C9.5 9.286 9.258 9 8.817 9H8V7.5h2.5V6h1v1.5h.5V6h1v1.526c2.158.073 3.012.891 3.257 1.812.29 1.09-.429 2.005-1.046 2.228.75.192 1.789.746 1.789 2.026 0 1.742-1.344 2.908-4 2.908V18h-1Zm-.5-5.503V15c1.984 0 3.344-.188 3.344-1.258 0-1.148-1.469-1.245-3.344-1.245Zm0-.997c1.105 0 2.789-.078 2.789-1.25 0-1-1.039-1.25-2.789-1.25v2.5Z" fill="#383838"/></svg>