<svg width="24" height="21" fill="none" xmlns="http://www.w3.org/2000/svg"><path d="M1.728.818a.75.75 0 1 0-1.456.364L1.728.818Zm4.038 14.967.45-.599-.45.6ZM3.02 9.252l.73-.175-.73.175Zm2.565 6.391.478-.578-.478.579Zm16.433-5.9.73.174-.73-.174Zm-2.13 5.614-.525-.535.526.536Zm-.849.67.398.636-.398-.636Zm2.902-10.271.515-.545-.515.545Zm.362.459.65-.374-.65.374ZM14 9.25a.75.75 0 0 0 0 1.5v-1.5Zm3 3a.75.75 0 0 0 0 1.5v-1.5ZM2.053 5.96h16.392v-1.5H2.053v1.5Zm11.03 10.08h-.504v1.5h.505v-1.5ZM3.752 9.076l-.969-4.041-1.459.35.969 4.04 1.459-.35Zm-.97-4.048L1.727.819l-1.456.363 1.053 4.21L2.78 5.03Zm9.798 11.01c-1.844 0-3.162 0-4.189-.12-1.008-.117-1.652-.34-2.174-.733l-.901 1.199c.813.612 1.75.89 2.902 1.024 1.133.132 2.554.13 4.362.13v-1.5ZM2.292 9.428c.421 1.758.751 3.14 1.144 4.211.398 1.09.887 1.935 1.672 2.584l.956-1.157c-.503-.415-.871-.99-1.22-1.942-.355-.971-.664-2.253-1.093-4.046l-1.459.35Zm3.924 5.759a4.293 4.293 0 0 1-.152-.12l-.956 1.156c.068.055.137.11.207.163l.901-1.199Zm6.868 2.354c1.564 0 2.793 0 3.782-.1 1.003-.101 1.83-.312 2.572-.777l-.796-1.271c-.474.296-1.046.467-1.927.556-.896.09-2.036.091-3.631.091v1.5Zm6.28-2.718a4.184 4.184 0 0 1-.722.57l.796 1.271c.353-.22.68-.479.977-.77l-1.05-1.07Zm-.919-8.861c.992 0 1.668 0 2.17.062.491.06.692.165.812.278l1.03-1.09c-.458-.432-1.032-.6-1.66-.677-.614-.075-1.398-.073-2.352-.073v1.5Zm4.303 3.956c.223-.927.407-1.69.477-2.304.072-.628.043-1.226-.27-1.772l-1.302.747c.083.143.138.363.082.854-.058.503-.214 1.16-.445 2.126l1.459.35Zm-1.32-3.616c.088.084.165.181.225.287l1.301-.747a2.748 2.748 0 0 0-.497-.63l-1.03 1.09ZM21 12.25h-4v1.5h4v-1.5Zm.957-3H14v1.5h7.957v-1.5Zm-.667.318-.062.257 1.459.35.061-.258-1.458-.35Zm-.062.257c-.298 1.24-.529 2.188-.771 2.947l1.428.456c.263-.821.507-1.826.802-3.053l-1.459-.35Zm-.771 2.947c-.326 1.019-.647 1.612-1.093 2.05l1.051 1.07c.699-.685 1.114-1.547 1.47-2.664l-1.428-.456Zm.543.978h.171v-1.5h-.17v1.5Zm-10.526 6.197a1.053 1.053 0 1 1-2.105 0 1.053 1.053 0 0 1 2.105 0Zm6.316 0a1.053 1.053 0 1 1-2.106 0 1.053 1.053 0 0 1 2.106 0Z" fill="#fff"/></svg>