<svg width="35" height="32" fill="none" xmlns="http://www.w3.org/2000/svg"><path d="M1.728.818a.75.75 0 1 0-1.456.364L1.728.818Zm6.584 22.868.45-.6-.45.6ZM4.102 13.66l.729-.175-.73.175Zm3.934 9.807.478-.578-.478.578Zm25.215-9.054.729.175-.73-.175Zm-3.268 8.615-.525-.535.525.535Zm-1.303 1.028.398.636-.398-.636Zm4.452-15.76.515-.545-.515.545Zm.555.704.65-.373-.65.373Zm-12.74 5.058a.75.75 0 1 0 0 1.5v-1.5Zm4.603 4.603a.75.75 0 0 0 0 1.5v-1.5ZM2.615 8.21h25.152v-1.5H2.615v1.5Zm16.926 16.266h-.775v1.5h.775v-1.5ZM4.83 13.486l-1.486-6.2-1.46.35 1.487 6.2 1.459-.35ZM3.343 7.278 1.728.818l-1.456.364 1.616 6.46 1.455-.364Zm15.423 17.198c-2.82 0-4.87 0-6.474-.187-1.584-.184-2.65-.542-3.53-1.203l-.9 1.2c1.17.88 2.528 1.292 4.257 1.493 1.71.199 3.863.197 6.647.197v-1.5ZM3.372 13.836c.649 2.707 1.15 4.8 1.741 6.418.599 1.634 1.317 2.86 2.445 3.792l.956-1.156c-.847-.7-1.444-1.654-1.992-3.152-.555-1.516-1.034-3.51-1.691-6.252l-1.459.35Zm5.39 9.25a7.041 7.041 0 0 1-.248-.196l-.956 1.156c.1.082.2.162.303.24l.902-1.2Zm10.779 2.89c2.408 0 4.27.001 5.762-.15 1.507-.152 2.707-.464 3.775-1.133l-.796-1.272c-.8.5-1.746.773-3.13.913-1.399.142-3.172.142-5.611.142v1.5Zm9.917-3.482c-.357.35-.752.662-1.176.927l.796 1.272a8.424 8.424 0 0 0 1.43-1.129l-1.05-1.07ZM27.767 8.21c1.512 0 2.578.002 3.379.1.789.096 1.197.274 1.471.533l1.03-1.091c-.612-.578-1.394-.819-2.32-.931-.913-.112-2.087-.11-3.56-.11v1.5Zm6.213 6.379c.343-1.433.618-2.574.723-3.489.106-.926.054-1.742-.365-2.472l-1.301.746c.188.328.266.766.175 1.556-.091.802-.338 1.838-.69 3.31l1.458.349Zm-1.362-5.746c.165.156.306.335.419.531l1.3-.746a3.817 3.817 0 0 0-.69-.876l-1.03 1.09Zm-.931 9.82H25.55v1.5h6.137v-1.5Zm1.469-4.604h-12.21v1.5h12.21v-1.5Zm-.635.18-.095.395 1.46.35.094-.395-1.459-.35Zm-.095.395c-.455 1.9-.814 3.37-1.191 4.55l1.429.456c.397-1.243.769-2.77 1.221-4.656l-1.459-.35Zm-1.191 4.55c-.508 1.59-1.025 2.572-1.777 3.31l1.05 1.07c1.005-.986 1.616-2.236 2.156-3.924l-1.43-.456Zm.452.978h.262v-1.5h-.262v1.5Zm-16.151 9.91a1.615 1.615 0 1 1-3.23 0 1.615 1.615 0 0 1 3.23 0Zm9.691 0a1.615 1.615 0 1 1-3.23 0 1.615 1.615 0 0 1 3.23 0Z" fill="#383838"/></svg>