<svg width="20" height="32" fill="none" xmlns="http://www.w3.org/2000/svg"><path fill-rule="evenodd" clip-rule="evenodd" d="M20 11h-2v-.2c-.1-.2-1.3-5.7-2-8.1C15.1 0 12.2 0 11.2 0H8.8C7.8 0 4.9 0 4 2.7c-.8 2.4-2 7.9-2 8.1v.2H0v5h6.4C4.9 17.4 4 19.5 4 22s1.2 4.1 2.5 5H3v5h14v-5h-3.5c1.3-.9 2.5-2.5 2.5-5s-.9-4.6-2.4-6H20v-5ZM10 1h1.2c1.4 0 3.2.2 3.8 2 .7 2.4 2 8 2 8h-7V1ZM5 3c.6-1.8 2.3-2 3.8-2H10v10H3s1.3-5.6 2-8Zm11 25v3H4v-3h12Zm-1-6c0 4.3-4 5-4 5H9s-4-.8-4-5c0-3.1 1.4-5.1 3-6h4c1.6.9 3 2.9 3 6Zm4-7H1v-3h18v3Z" fill="#000"/></svg>