<svg width="16" height="16" fill="none" xmlns="http://www.w3.org/2000/svg"><path d="M3.8 8A1.4 1.4 0 1 1 1 8a1.4 1.4 0 0 1 2.8 0Zm5.6 0a1.4 1.4 0 1 1-2.8 0 1.4 1.4 0 0 1 2.8 0ZM15 8a1.4 1.4 0 1 1-2.8 0A1.4 1.4 0 0 1 15 8ZM3.8 2.4a1.4 1.4 0 1 1-2.8 0 1.4 1.4 0 0 1 2.8 0Zm5.6 0a1.4 1.4 0 1 1-2.8 0 1.4 1.4 0 0 1 2.8 0Zm5.6 0a1.4 1.4 0 1 1-2.8 0 1.4 1.4 0 0 1 2.8 0ZM3.8 13.6a1.4 1.4 0 1 1-2.8 0 1.4 1.4 0 0 1 2.8 0Zm5.6 0a1.4 1.4 0 1 1-2.8 0 1.4 1.4 0 0 1 2.8 0Zm5.6 0a1.4 1.4 0 1 1-2.8 0 1.4 1.4 0 0 1 2.8 0Z" stroke="#fff"/></svg>