<svg width="32" height="21" fill="none" xmlns="http://www.w3.org/2000/svg"><path fill-rule="evenodd" clip-rule="evenodd" d="M3 21h1v-2H3v2ZM31 9.4V4c0-2.2-1.8-4-4-4H5C2.8 0 1 1.8 1 4v5.4c-.6.7-1 1.6-1 2.6v7h32v-7c0-1-.4-1.9-1-2.6ZM2 4c0-1.7 1.3-3 3-3h22c1.7 0 3 1.3 3 3v4.6c-.6-.4-1.3-.6-2-.6h-1V7c0-1.7-1.3-3-3-3h-4c-1.7 0-3 1.3-3 3v1h-2V7c0-1.7-1.3-3-3-3H8C6.3 4 5 5.3 5 7v1H4c-.7 0-1.4.2-2 .6V4Zm24 3v1h-8V7c0-1.1.9-2 2-2h4c1.1 0 2 .9 2 2ZM14 7v1H6V7c0-1.1.9-2 2-2h4c1.1 0 2 .9 2 2Zm17 11H1v-5h30v5ZM1 12c0-1.7 1.3-3 3-3h24c1.7 0 3 1.3 3 3H1Zm27 9h1v-2h-1v2Z" fill="#000"/></svg>