<svg width="20" height="32" viewBox="0 0 20 32" fill="none" xmlns="http://www.w3.org/2000/svg">
<path fill-rule="evenodd" clip-rule="evenodd" d="M20 11H18V10.8C17.9 10.6 16.7 5.1 16 2.7C15.1 0 12.2 0 11.2 0H8.8C7.8 0 4.9 0 4 2.7C3.2 5.1 2 10.6 2 10.8V11H0V16H6.4C4.9 17.4 4 19.5 4 22C4 24.5 5.2 26.1 6.5 27H3V32H17V27H13.5C14.8 26.1 16 24.5 16 22C16 19.5 15.1 17.4 13.6 16H20V11ZM10 1H11.2C12.6 1 14.4 1.2 15 3C15.7 5.4 17 11 17 11H10V1ZM5 3C5.6 1.2 7.3 1 8.8 1H10V11H3C3 11 4.3 5.4 5 3ZM16 28V31H4V28H16ZM15 22C15 26.3 11 27 11 27H9C9 27 5 26.2 5 22C5 18.9 6.4 16.9 8 16H12C13.6 16.9 15 18.9 15 22ZM19 15H1V12H19V15Z" fill="black"/>
</svg>
