<svg width="9" height="5" fill="none" xmlns="http://www.w3.org/2000/svg"><path fill-rule="evenodd" clip-rule="evenodd" d="M8.248 1.432a.535.535 0 0 0-.003-.727.468.468 0 0 0-.688.003l-1.228 1.31c-.498.53-.842.897-1.135 1.146-.285.242-.474.33-.646.352a1.187 1.187 0 0 1-.318 0c-.173-.023-.36-.11-.646-.352-.293-.249-.638-.616-1.135-1.146L1.22.708A.468.468 0 0 0 .533.705a.535.535 0 0 0-.003.727l1.228 1.31.02.022c.472.503.856.912 1.197 1.202.353.3.708.514 1.132.57.187.026.377.026.564 0 .424-.056.778-.27 1.132-.57.341-.29.724-.699 1.196-1.202l.021-.022 1.228-1.31Z" fill="#fff"/></svg>