<svg width="17" height="16" viewBox="0 0 17 16" fill="none" xmlns="http://www.w3.org/2000/svg">
<path d="M16.7591 1.32163C17.0803 1.01929 17.0803 0.529097 16.7591 0.226756C16.4378 -0.0755853 15.917 -0.0755853 15.5958 0.226756L8.5 6.90514L1.40423 0.226759C1.08299 -0.0755823 0.562165 -0.0755823 0.240928 0.226759C-0.0803093 0.5291 -0.0803093 1.01929 0.240928 1.32163L7.3367 8.00001L0.240957 14.6784C-0.0802797 14.9807 -0.0802797 15.4709 0.240957 15.7732C0.562195 16.0756 1.08302 16.0756 1.40426 15.7732L8.5 9.09489L15.5957 15.7732C15.917 16.0756 16.4378 16.0756 16.759 15.7732C17.0803 15.4709 17.0803 14.9807 16.759 14.6784L9.6633 8.00001L16.7591 1.32163Z" fill="white"/>
</svg>
