<svg width="26" height="26" fill="none" xmlns="http://www.w3.org/2000/svg"><g clip-path="url(#a)" fill="#fff"><path d="M22.323 20.198a2.227 2.227 0 1 1-.004-4.455 2.227 2.227 0 0 1 .004 4.455Zm0-3.643a1.415 1.415 0 1 0-.004 2.83 1.415 1.415 0 0 0 .004-2.83Zm-11.738 3.643a2.228 2.228 0 1 1-.004-4.457 2.228 2.228 0 0 1 .004 4.457Zm0-3.643a1.415 1.415 0 1 0-.004 2.83 1.415 1.415 0 0 0 .004-2.83Z"/><path d="M25.253 18.377h-1.111a.406.406 0 0 1 0-.813h.996V15.41c0-.291-.075-.578-.216-.832l-2.2-3.943a.216.216 0 0 0-.189-.111h-2.997v7.042h.968a.406.406 0 0 1 0 .812H19.13a.406.406 0 0 1-.406-.406v-7.854a.407.407 0 0 1 .406-.406h3.403a1.03 1.03 0 0 1 .9.527l2.198 3.943c.21.376.319.798.32 1.228v2.27a.698.698 0 0 1-.698.697Zm-16.487 0H4.87a.407.407 0 0 1-.407-.407v-3.124a.406.406 0 1 1 .813 0v2.718h3.489a.407.407 0 0 1 0 .813ZM4.87 13.405a.406.406 0 0 1-.406-.407v-2.727a.406.406 0 0 1 .813 0V13a.406.406 0 0 1-.406.405Z"/><path d="M19.13 18.377h-6.726a.406.406 0 0 1 0-.813h6.32V6.936H5.277v1.673a.406.406 0 0 1-.813 0V6.861a.739.739 0 0 1 .739-.737h13.596a.739.739 0 0 1 .737.737v11.11a.406.406 0 0 1-.406.406ZM6.477 15.252H1.32a.406.406 0 1 1 0-.812h5.156a.406.406 0 1 1 0 .812Z"/><path d="M10.585 13.405H3.39a.406.406 0 1 1 0-.813h7.195a.406.406 0 1 1 0 .813ZM3.167 11.26H.357a.406.406 0 1 1 0-.813h2.81a.406.406 0 1 1 0 .813Zm4.505-2.244h-4.96a.406.406 0 0 1 0-.813h4.96a.406.406 0 0 1 0 .813Z"/></g><defs><clipPath id="a"><path fill="#fff" d="M0 0h26v26H0z"/></clipPath></defs></svg>