<svg width="29" height="29" viewBox="0 0 29 29" fill="none" xmlns="http://www.w3.org/2000/svg">
<path fill-rule="evenodd" clip-rule="evenodd" d="M0 14.5C0 6.49187 6.49187 0 14.5 0C22.5081 0 29 6.49187 29 14.5C29 22.5081 22.5081 29 14.5 29C6.49187 29 0 22.5081 0 14.5ZM14.5 7.25C18.4875 7.25 21.75 10.5125 21.75 14.5C21.75 18.125 19.1219 21.2062 15.4969 21.75V16.5844H17.2188L17.5812 14.5H15.5875V13.1406C15.5875 12.5969 15.8594 12.0531 16.7656 12.0531H17.6719V10.2406C17.6719 10.2406 16.8563 10.0594 16.0406 10.0594C14.4094 10.0594 13.3219 11.0562 13.3219 12.8687V14.5H11.5094V16.5844H13.3219V21.6594C9.87812 21.1156 7.25 18.125 7.25 14.5C7.25 10.5125 10.5125 7.25 14.5 7.25Z" fill="white"/>
</svg>
