<svg width="19" height="16" fill="none" xmlns="http://www.w3.org/2000/svg"><path d="M10.542 1.712H.669a.662.662 0 0 0-.669.67c0 .374.294.668.669.668h9.873a2.392 2.392 0 0 0 2.3 1.713c1.071 0 2.008-.723 2.275-1.713h2.435a.662.662 0 0 0 .669-.669.662.662 0 0 0-.67-.669h-2.434a2.384 2.384 0 0 0-4.575 0Zm3.318.67a1.045 1.045 0 0 1-2.087 0c0-.59.481-1.044 1.043-1.044.535 0 1.043.455 1.043 1.043ZM2.515 7.064H.669A.662.662 0 0 0 0 7.732c0 .375.294.67.669.67h1.846a2.392 2.392 0 0 0 2.301 1.712c1.07 0 2.007-.723 2.274-1.713h10.462a.662.662 0 0 0 .669-.669.662.662 0 0 0-.67-.668H7.092a2.384 2.384 0 0 0-4.576 0Zm3.318.668a1.045 1.045 0 0 1-2.087 0 1.044 1.044 0 0 1 2.087 0Zm1.498 5.218H.67a.662.662 0 0 0-.669.669c0 .374.294.669.669.669h6.66A2.392 2.392 0 0 0 9.632 16c1.07 0 2.007-.722 2.274-1.712h5.646a.662.662 0 0 0 .669-.67.662.662 0 0 0-.67-.668h-5.645a2.384 2.384 0 0 0-4.575 0Zm3.318.669a1.045 1.045 0 0 1-2.087 0 1.044 1.044 0 0 1 2.087 0Z" fill="#72BF44"/></svg>