<svg width="125" height="87" fill="none" xmlns="http://www.w3.org/2000/svg"><path d="M12.6 80.027h-.868l-2.585 2.725v-2.725H8.44v4.723h.706v-1.142l.996-1.024 1.68 2.166h.832l-2.03-2.676 1.976-2.047Zm3.045 3.94-1.72-3.94h-.778l2.148 4.705c-.283.669-.551.887-.97.887-.3 0-.51-.054-.741-.173l-.237.56c.319.155.614.237 1.006.237.714 0 1.17-.355 1.57-1.334l1.984-4.882h-.747l-1.515 3.94Zm3.381.783h.705v-4.1h2.685v4.1h.705v-4.723h-4.095v4.723Zm7.686-.783-1.72-3.94h-.778l2.148 4.705c-.283.669-.551.887-.97.887-.3 0-.51-.054-.741-.173l-.237.56a2.15 2.15 0 0 0 1.005.237c.715 0 1.17-.355 1.57-1.334l1.985-4.882h-.751l-1.511 3.94Zm4.086-.2v-3.74h-.705v4.723h.678l2.812-3.736v3.736h.706v-4.723H33.6l-2.803 3.74Zm2.658-5.533-.482-.1c-.11.39-.355.641-.806.641-.446 0-.696-.246-.805-.642l-.483.1c.11.651.606 1.115 1.288 1.115.687 0 1.179-.464 1.288-1.114Zm7.577 4.277-1.761-2.484h-.67v4.723h.688v-3.6l1.724 2.394 1.748-2.393v3.6h.714v-4.724h-.678l-1.765 2.484Zm5.988-2.584c-1.306 0-2.266 1.096-2.266 2.466 0 1.47 1.06 2.466 2.357 2.466.897 0 1.47-.355 1.948-.887l-.437-.391c-.382.4-.842.668-1.488.668-.833 0-1.561-.577-1.666-1.57h3.745c.01-.109.01-.181.01-.245 0-1.393-.806-2.507-2.203-2.507Zm-1.556 2.184c.1-.915.723-1.588 1.533-1.588.933 0 1.425.732 1.507 1.588h-3.04Zm7.367-2.03c-1.005 0-1.629.464-1.957 1.024.073-.906.4-1.433 1.38-1.684l2.557-.632-.137-.596-2.63.623c-1.647.391-1.766 1.857-1.766 3.381 0 1.647.96 2.658 2.394 2.658 1.397 0 2.42-1.115 2.42-2.43.005-1.293-1.028-2.344-2.26-2.344Zm-.136 4.15c-.951 0-1.693-.796-1.693-1.783 0-.988.696-1.784 1.675-1.784.95 0 1.692.796 1.692 1.784 0 .987-.696 1.783-1.674 1.783Zm4.341-3.813c0 3.545-.473 3.795-1.042 3.795a1.56 1.56 0 0 1-.337-.064l-.082.606c.146.036.41.072.564.072.897 0 1.561-.382 1.561-4.068v-.109h1.975v4.105h.706V80.03h-3.345v.387Zm5.688-.391h-.705v4.723h.705v-4.723Zm.055-1.811h-.806v.778h.806v-.778Zm4.323 6.534h.7v-4.1h2.69v4.1h.701v-4.723h-4.091v4.723Zm8.177-4.823c-.869 0-1.424.482-1.81 1.05v-.95h-.706v6.188h.705V83.85c.364.528.933 1.006 1.811 1.006 1.143 0 2.257-.915 2.257-2.458 0-1.574-1.124-2.47-2.257-2.47Zm-.127 4.295c-.878 0-1.711-.732-1.711-1.83 0-1.096.833-1.837 1.711-1.837.896 0 1.665.714 1.665 1.829 0 1.16-.75 1.838-1.665 1.838Zm5.857-4.295c-1.425 0-2.467 1.133-2.467 2.466 0 1.351 1.033 2.466 2.448 2.466a2.453 2.453 0 0 0 2.476-2.466c.005-1.352-1.038-2.466-2.457-2.466Zm0 4.304c-.997 0-1.748-.823-1.748-1.838 0-1.015.706-1.848 1.73-1.848.996 0 1.756.833 1.756 1.848 0 1.015-.715 1.838-1.738 1.838Zm5.897 0c-.987 0-1.738-.814-1.738-1.838 0-1.033.733-1.848 1.693-1.848.641 0 1.078.3 1.451.697l.446-.474c-.437-.464-.996-.841-1.893-.841-1.379 0-2.42 1.133-2.42 2.466 0 1.342 1.041 2.466 2.42 2.466.888 0 1.452-.382 1.93-.914l-.465-.428c-.373.405-.819.714-1.424.714Zm2.503-3.581h1.693v4.1h.714v-4.1h1.688v-.623H89.41v.623Zm7.113-.723c-1.425 0-2.467 1.133-2.467 2.466 0 1.351 1.033 2.466 2.448 2.466a2.453 2.453 0 0 0 2.476-2.466c0-1.352-1.042-2.466-2.457-2.466Zm0 4.304c-.997 0-1.748-.823-1.748-1.838 0-1.015.706-1.848 1.73-1.848.996 0 1.756.833 1.756 1.848 0 1.015-.715 1.838-1.738 1.838Zm4.596-5.356v-.519h-.824v.52l.214 4.067h.391l.219-4.068Zm.009 4.919h-.842v.96h.842v-.96Z" fill="#545555"/><path d="M79.403 18.898 60.495.082H49.856L.127 49.847h17.06l38.066-38.084L79.408 35.8l18.075-17.942v31.995h12.04V.082h-12.04l-18.08 18.816Z" fill="#1C964D"/><path d="M29.997 12.992 17.042.032H0l21.474 21.48 8.523-8.52Zm36.906 36.837L45.556 28.528l-8.537 8.532 12.783 12.769h17.1Zm45.442-48.791h2.029v5.351h1.133V1.038h2.025V0h-5.187v1.038ZM123.808 0l-1.948 3.022L119.917 0h-1.197v6.389h1.106V1.825l1.998 2.994h.036l2.021-3.012v4.582H125V0h-1.192ZM6.53 65.023l3.586-5.242h-2.68l-2.271 3.481-2.253-3.481H.155l3.586 5.274L0 70.511h2.68l2.426-3.677 2.407 3.677h2.758l-3.74-5.488Zm8.619.478c-1.948 0-3.313.828-3.313 2.621 0 1.657 1.274 2.544 2.822 2.544 1.133 0 1.915-.414 2.484-1.042v.887h2.253v-4.769c0-1.106-.278-2.007-.888-2.62-.582-.583-1.501-.92-2.776-.92-1.396 0-2.284.26-3.19.66l.583 1.78c.75-.278 1.379-.447 2.27-.447 1.166 0 1.762.537 1.762 1.502v.136a5.925 5.925 0 0 0-2.007-.332Zm2.039 1.702v.414c0 .842-.737 1.443-1.825 1.443-.751 0-1.274-.369-1.274-.997 0-.769.614-1.165 1.61-1.165a3.65 3.65 0 0 1 1.489.305Zm9.642-5.06c-1.21 0-1.993.569-2.562 1.333v-1.178h-2.33v10.67h2.33v-3.526c.551.66 1.32 1.224 2.562 1.224 1.948 0 3.74-1.502 3.74-4.246 0-2.776-1.824-4.277-3.74-4.277Zm-.596 6.548c-1.087 0-1.993-.906-1.993-2.266 0-1.397.906-2.298 1.993-2.298 1.088 0 2.007.905 2.007 2.266 0 1.406-.92 2.298-2.007 2.298Zm11.531-3.021 3.017-3.373h-2.68l-2.944 3.373v-3.373h-2.33v8.214h2.33v-1.975l1.06-1.151 2.189 3.126h2.762l-3.404-4.841Zm7.468-6.349H42.78v2.071h2.453v-2.07Zm-.064 2.976h-2.33v8.219h2.33v-8.219Zm8.678 3.909c.705-.305 1.301-.86 1.301-1.856 0-1.288-1.087-2.052-2.744-2.052H47.9v8.218h4.492c1.902 0 3.067-.842 3.067-2.239 0-1.151-.614-1.766-1.611-2.07Zm-3.645-2.193h1.67c.674 0 .951.35.951.75 0 .479-.323.83-.983.83h-1.638v-1.58Zm1.838 4.678h-1.838v-1.624h1.78c.796 0 1.119.354 1.119.796-.005.487-.342.828-1.06.828Zm21.711 1.82v-10.73h-2.544l-2.82 4.542-2.822-4.542H63.02v10.73h2.312v-6.957l2.99 4.536h.063l3.017-4.582v7.003h2.348Zm6.53-8.368c-2.393 0-4.063 1.934-4.063 4.277 0 2.544 1.825 4.278 4.291 4.278 1.488 0 2.59-.583 3.358-1.534l-1.333-1.178c-.642.596-1.21.842-1.993.842-1.042 0-1.78-.551-2.007-1.611h5.72c.014-.214.032-.433.032-.615 0-2.325-1.26-4.46-4.005-4.46Zm-1.774 3.617c.182-1.06.814-1.747 1.779-1.747.983 0 1.593.705 1.734 1.747h-3.513Zm12.523-3.158c-1.688 0-2.685.842-2.99 1.38.064-.783.473-1.625 1.993-1.93l4.505-.892-.368-1.839-4.4.815c-3.081.569-3.45 3.19-3.45 5.656 0 3.159 1.52 4.906 4.291 4.906 2.498 0 4.31-1.884 4.31-4.155a3.903 3.903 0 0 0-3.891-3.94Zm-.382 6.09c-1.152 0-2.007-.952-2.007-2.117 0-1.197.796-2.148 1.98-2.148 1.15 0 2.006.97 2.006 2.148 0 1.179-.782 2.116-1.98 2.116Zm5.815-.065a5.2 5.2 0 0 1-.491-.045l-.155 1.884c.305.077.874.136 1.179.136 2.052 0 2.99-.873 2.99-6.316h2.084v6.225h2.33v-8.218h-6.603c0 5.83-.46 6.334-1.334 6.334Zm13.001-6.33h-2.329v8.219h2.329v-8.219Zm.06-2.976h-2.453v2.071h2.453v-2.07Z" fill="#604337"/></svg>