<svg width="16" height="20" fill="none" xmlns="http://www.w3.org/2000/svg">
	<path d="m10.241 17.03-.59-.463.59.463Zm-4.767 0-.59.462.59-.462Zm2.383 1.976v-.75.75Zm6.108-10.627c0 1.022-.536 2.408-1.397 3.931-.845 1.494-1.938 3.009-2.917 4.257l1.18.925c1.002-1.276 2.145-2.858 3.042-4.443.88-1.557 1.592-3.234 1.592-4.67h-1.5Zm-7.901 8.188c-.979-1.248-2.072-2.763-2.917-4.257C2.286 10.787 1.75 9.4 1.75 8.38H.25c0 1.435.711 3.112 1.592 4.669.897 1.585 2.04 3.167 3.042 4.444l1.18-.926ZM1.75 8.379c0-3.714 2.785-6.629 6.107-6.629V.25C3.605.25.25 3.942.25 8.38h1.5ZM7.857 1.75c3.323 0 6.108 2.915 6.108 6.63h1.5c0-4.438-3.355-8.13-7.608-8.13v1.5Zm1.794 14.817c-.533.68-.876 1.113-1.18 1.39-.273.247-.439.299-.614.299v1.5c.66 0 1.17-.278 1.622-.69.42-.381.852-.936 1.352-1.573l-1.18-.926Zm-4.767.925c.5.638.931 1.193 1.352 1.575.452.41.962.689 1.621.689v-1.5c-.174 0-.34-.052-.613-.3-.304-.276-.647-.71-1.18-1.39l-1.18.927Zm-.348-8.777a3.322 3.322 0 0 0 3.321 3.321v-1.5a1.822 1.822 0 0 1-1.821-1.821h-1.5Zm3.321 3.321a3.322 3.322 0 0 0 3.322-3.321h-1.5a1.822 1.822 0 0 1-1.822 1.821v1.5Zm3.322-3.321a3.322 3.322 0 0 0-3.322-3.322v1.5c1.006 0 1.822.816 1.822 1.822h1.5ZM7.857 5.393a3.322 3.322 0 0 0-3.321 3.322h1.5c0-1.006.815-1.822 1.821-1.822v-1.5Z" fill="#72BF44" />
</svg>