<svg width="24" height="24" fill="none" xmlns="http://www.w3.org/2000/svg"><path d="M21.5 6a.5.5 0 0 1 .5.5v11a.5.5 0 0 1-.5.5h-19a.5.5 0 0 1-.5-.5v-11a.5.5 0 0 1 .5-.5h19ZM24 6a2 2 0 0 0-2-2H2a2 2 0 0 0-2 2v12a2 2 0 0 0 2 2h20a2 2 0 0 0 2-2V6Zm-6.836 5.188a3.188 3.188 0 1 1-6.375 0 3.188 3.188 0 0 1 6.375 0Zm-6.73 0c0-1.087.493-2.061 1.266-2.711a3.188 3.188 0 1 0 0 5.422 3.536 3.536 0 0 1-1.266-2.711Zm-1.722 4.791v-.531c0-.2-.127-.335-.333-.336a.325.325 0 0 0-.297.151.311.311 0 0 0-.28-.151.281.281 0 0 0-.248.126v-.104H7.37v.846h.186v-.469c0-.147.081-.225.207-.225.122 0 .184.08.184.223v.471h.186v-.469c0-.147.085-.225.207-.225.126 0 .186.08.186.223v.471h.186v-.001Zm2.752-.847h-.301v-.257h-.186v.257h-.172v.168h.172v.386c0 .197.076.313.294.313.08 0 .172-.025.23-.066l-.053-.158-.163.048c-.092 0-.122-.057-.122-.142v-.382h.301v-.167Zm1.57-.021a.25.25 0 0 0-.223.124v-.103h-.182v.846h.184v-.475c0-.14.06-.218.181-.218l.115.021.057-.174-.132-.021Zm-2.374.089a.638.638 0 0 0-.345-.089c-.214 0-.352.103-.352.271 0 .138.103.223.292.25l.087.012c.101.014.149.041.149.089 0 .066-.067.103-.193.103a.452.452 0 0 1-.282-.089l-.088.143c.101.074.228.11.367.11.244 0 .386-.115.386-.276 0-.149-.112-.227-.296-.253l-.087-.012c-.08-.011-.143-.027-.143-.083 0-.062.06-.099.161-.099.108 0 .212.041.264.073l.08-.15Zm4.933-.089a.25.25 0 0 0-.223.124v-.103h-.182v.846h.184v-.475c0-.14.06-.218.181-.218l.115.021.057-.174-.132-.021Zm-2.373.445c0 .257.179.444.452.444a.445.445 0 0 0 .305-.101l-.089-.149a.37.37 0 0 1-.221.076c-.147-.002-.255-.108-.255-.271 0-.163.108-.269.255-.271.08 0 .152.027.221.076l.089-.149a.442.442 0 0 0-.305-.101c-.273.001-.452.189-.452.446Zm1.725 0v-.423h-.184v.103a.32.32 0 0 0-.267-.124c-.237 0-.423.186-.423.444 0 .259.186.444.423.444a.32.32 0 0 0 .267-.124v.103h.184v-.423Zm-.685 0c0-.149.097-.271.257-.271.152 0 .255.117.255.271 0 .154-.103.271-.255.271-.16-.001-.257-.123-.257-.271Zm-2.222-.445c-.248 0-.421.181-.421.444 0 .269.181.444.434.444a.515.515 0 0 0 .347-.119l-.09-.136a.402.402 0 0 1-.246.089c-.119 0-.227-.055-.253-.207h.629l.004-.071c-.004-.263-.167-.444-.404-.444Zm-.004.165c.119 0 .195.074.214.205h-.439c.02-.122.094-.205.225-.205Zm4.62.28v-.763h-.184v.443a.32.32 0 0 0-.267-.124c-.237 0-.423.186-.423.444 0 .259.186.444.423.444a.32.32 0 0 0 .267-.124v.103h.184v-.423Zm-.685 0c0-.149.097-.271.257-.271.152 0 .255.117.255.271 0 .154-.103.271-.255.271-.16-.001-.257-.123-.257-.271Zm-6.219 0v-.423h-.185v.103a.32.32 0 0 0-.267-.124c-.237 0-.423.186-.423.444s.186.444.423.444a.32.32 0 0 0 .267-.124v.103h.185v-.423Zm-.686 0c0-.149.097-.271.257-.271.152 0 .255.117.255.271 0 .154-.103.271-.255.271-.159-.001-.257-.123-.257-.271Z" fill="#383838"/></svg>