<svg width="16" height="14" fill="none" xmlns="http://www.w3.org/2000/svg"><path d="M14.02 3.127c.297.666.423 1.573.64 3.133.332 2.394.499 3.591.133 4.52a3.811 3.811 0 0 1-1.678 1.928c-.87.49-2.079.49-4.496.49H7.381c-2.417 0-3.626 0-4.496-.49a3.811 3.811 0 0 1-1.678-1.927c-.366-.93-.2-2.127.133-4.521.203-1.46.326-2.35.585-3.003m12.095-.13a2.8 2.8 0 0 0-.196-.365A3.812 3.812 0 0 0 12.2 1.347C11.443 1 10.5 1 8.619 1H7.381c-1.882 0-2.824 0-3.58.347a3.812 3.812 0 0 0-1.625 1.415 2.895 2.895 0 0 0-.25.495m12.094-.13-.068.068-.654.654C10.757 6.39 9.486 7.66 7.908 7.66c-1.58 0-2.85-1.271-5.391-3.812l-.592-.592" stroke="#72BF44" stroke-width="1.5"/></svg>