<svg width="19" height="21" fill="none" xmlns="http://www.w3.org/2000/svg"><path d="M.779 14.196a.5.5 0 0 0 .95-.309l-.95.31Zm16.6-.154-.475-.155.475.155Zm-3.337 3.337-.155-.475.155.475Zm3.813-10.863a.5.5 0 1 0-.951.31l.95-.31ZM4.592 3.334l-.155-.476.155.476ZM1.254 6.67.78 6.516l.475.155ZM13.05.646a.5.5 0 1 0-.707.708l.707-.708Zm.92 1.628.354-.353-.353.353Zm-.07 1.534-.32-.384.32.384Zm-1.784.836a.5.5 0 0 0 .64.769l-.64-.769ZM6.552 15.908a.5.5 0 1 0-.708-.707l.708.707Zm-1.628.92.353.354-.353-.353Zm.07 1.534-.32.385.32-.385Zm1.144 1.605a.5.5 0 0 0 .64-.768l-.64.768Zm-1.505-2.575-.493-.081.493.081Zm5.723-.258H8.277v1h2.08v-1ZM.5 10.356c0 1.896-.006 2.963.279 3.84l.95-.309c-.223-.688-.229-1.557-.229-3.53h-1Zm16.634 0c0 1.974-.007 2.843-.23 3.531l.95.31c.286-.878.28-1.944.28-3.84h-1Zm-6.778 7.778c1.896 0 2.963.006 3.84-.28l-.309-.95c-.688.223-1.557.23-3.53.23v1Zm6.548-4.247a4.698 4.698 0 0 1-3.017 3.017l.31.95a5.698 5.698 0 0 0 3.658-3.658l-.951-.309Zm1.23-3.53c0-1.897.006-2.963-.28-3.84l-.95.308c.223.69.23 1.558.23 3.531h1ZM8.277 2.578c-1.896 0-2.962-.006-3.84.28l.31.95c.688-.224 1.556-.23 3.53-.23v-1ZM1.5 10.356c0-1.973.006-2.842.23-3.53l-.951-.31C.494 7.394.5 8.46.5 10.356h1Zm2.937-7.498A5.698 5.698 0 0 0 .78 6.516l.95.31a4.698 4.698 0 0 1 3.017-3.017l-.309-.95Zm7.905-1.504 1.274 1.274.707-.707L13.05.646l-.707.708Zm1.238 2.07-1.464 1.22.64.769 1.464-1.22-.64-.77ZM5.844 15.2 4.57 16.475l.707.707 1.275-1.274-.708-.707Zm-1.17 3.546 1.464 1.22.64-.768-1.465-1.22-.64.768ZM8.276 3.579h5.718v-1H8.277v1Zm5.34-.951a.536.536 0 0 1 .156.418l.998.067a1.536 1.536 0 0 0-.448-1.192l-.707.707Zm.156.418a.535.535 0 0 1-.193.378l.64.768a1.53 1.53 0 0 0 .55-1.08l-.997-.066Zm.222.533h.277v-1h-.277v1ZM4.57 16.475c-.236.236-.38.53-.43.836l.987.163a.533.533 0 0 1 .15-.292l-.707-.707Zm-.43.836a1.54 1.54 0 0 0 .533 1.436l.64-.769a.538.538 0 0 1-.186-.504l-.987-.163Zm4.137-.177c-1.938 0-2.81-.006-3.495-.219l-.297.955c.867.27 1.929.264 3.792.264v-1Z" fill="#72BF44"/></svg>