<svg version="1.0" xmlns="http://www.w3.org/2000/svg" width="346.667" height="346.667" viewBox="0 0 260 260"><path d="M10.4 76.4c-1.1 2.9.1 5.1 2.9 5.4 2.1.3 2.7.9 2.7 2.8s.5 2.4 2.4 2.4 2.5.6 2.8 2.7c.2 2.2.9 2.9 3.1 3.1 2.1.3 2.7.9 2.7 2.8s.5 2.4 2.5 2.4 2.5.5 2.5 2.5.5 2.5 2.4 2.5 2.5.6 2.8 2.7c.2 2.2.9 2.9 3.1 3.1 2.1.3 2.7.9 2.7 2.8s.5 2.4 2.5 2.4 2.5.5 2.5 2.5c0 2.4.3 2.5 5.4 2.5 5.2 0 5.5-.1 5.8-2.8.2-2.1.9-2.8 3.1-3 2.1-.3 2.7-.9 2.7-2.8s.5-2.4 2.5-2.4c2.3 0 2.5-.3 2.5-5s-.2-5-2.5-5c-2.1 0-2.5-.5-2.5-3 0-2.7-.3-3-3-3-2.5 0-3-.4-3-2.5 0-2-.5-2.5-2.5-2.5s-2.5-.5-2.5-2.4-.6-2.5-2.7-2.8c-2.2-.2-2.9-.9-3.1-2.9-.3-2.5-.6-2.6-8.5-3.2-15.2-1.2-28.7-.9-29.3.7zM114 78.5c0 2-.5 2.5-2.4 2.5s-2.5.6-2.8 2.7c-.2 2.2-.9 2.9-3 3.1-2.2.3-2.8.9-2.8 2.8s-.5 2.4-2.4 2.4-2.5.6-2.8 2.7c-.2 2.2-.9 2.9-3 3.1-2.2.3-2.8.9-2.8 2.8s-.5 2.4-2.4 2.4-2.5.6-2.8 2.7c-.2 2.2-.9 2.9-3 3.1-2.2.3-2.8.9-2.8 2.8s-.5 2.4-2.5 2.4-2.5.5-2.5 2.5-.5 2.5-2.4 2.5-2.5.6-2.8 2.7c-.2 2.2-.9 2.9-3 3.1-2.2.3-2.8.9-2.8 2.8s-.5 2.4-2.4 2.4-2.5.6-2.8 2.7c-.2 2.2-.9 2.9-3 3.1-2.2.3-2.8.9-2.8 2.8s-.5 2.4-2.5 2.4-2.5.5-2.5 2.5-.5 2.5-2.4 2.5-2.5.6-2.8 2.7c-.2 2.2-.9 2.9-3 3.1-2.2.3-2.8.9-2.8 2.8s-.5 2.4-2.4 2.4-2.5.6-2.8 2.7c-.2 2.2-.9 2.9-3 3.1-2.2.3-2.8.9-2.8 2.8s-.5 2.4-2.4 2.4-2.5.6-2.8 2.7c-.2 2.2-.9 2.9-3 3.1-2.2.3-2.8.9-2.8 2.8s-.5 2.4-2.5 2.4-2.5.5-2.5 2.5-.5 2.5-2.5 2.5-2.5.5-2.5 2.5v2.5h37v-2.5c0-2.1.5-2.5 3-2.5s3-.4 3-2.5c0-2 .5-2.5 2.5-2.5 2.1 0 2.5-.5 2.5-3s.4-3 2.5-3c2 0 2.5-.5 2.5-2.5 0-2.1.5-2.5 3-2.5 2.7 0 3-.3 3-3 0-2.5.4-3 2.5-3 2 0 2.5-.5 2.5-2.5 0-2.1.5-2.5 3-2.5 2.7 0 3-.3 3-3 0-2.5.4-3 2.5-3 2 0 2.5-.5 2.5-2.5s.5-2.5 2.5-2.5 2.5-.5 2.5-2.5c0-2.1.5-2.5 3-2.5 2.7 0 3-.3 3-3 0-2.5.4-3 2.5-3 2 0 2.5-.5 2.5-2.5 0-2.1.5-2.5 3-2.5 2.7 0 3-.3 3-3 0-2.5.4-3 2.5-3 2 0 2.5-.5 2.5-2.5 0-2.1.5-2.5 3-2.5s3-.4 3-2.5c0-2 .5-2.5 2.5-2.5 2.1 0 2.5-.5 2.5-3s.4-3 2.5-3c2 0 2.5-.5 2.5-2.5 0-2.1.5-2.5 3-2.5s3-.4 3-2.5c0-2 .5-2.5 2.5-2.5s2.5.5 2.5 2.5c0 2.1.5 2.5 3 2.5 2.7 0 3 .3 3 3 0 2.5.4 3 2.5 3 2 0 2.5.5 2.5 2.5s.5 2.5 2.5 2.5 2.5.5 2.5 2.5c0 2.1.5 2.5 3 2.5 2.7 0 3 .3 3 3 0 2.5.4 3 2.5 3 2 0 2.5.5 2.5 2.5 0 2.1.5 2.5 3 2.5 2.7 0 3 .3 3 3 0 2.5.4 3 2.5 3 2 0 2.5.5 2.5 2.5s.5 2.5 2.4 2.5 2.5.6 2.8 2.7c.2 2.2.9 2.9 3.1 3.1 2.1.3 2.7.9 2.7 2.8 0 2.6.8 2.8 7.3 1.8 3.1-.6 3.7-1.1 3.7-3s.5-2.4 2.5-2.4 2.5-.5 2.5-2.4.6-2.5 2.8-2.8c2.1-.2 2.8-.9 3-3 .3-2.2.9-2.8 2.8-2.8s2.4-.5 2.4-2.5.5-2.5 2.4-2.5 2.5-.6 2.8-2.8c.2-2.1.9-2.8 3.1-3 2.1-.3 2.7-.9 2.7-2.8 0-2 .5-2.4 3-2.4s3-.4 3-2.5c0-2 .5-2.5 2.5-2.5h2.5v75h22V76h-28v2.5c0 2-.5 2.5-2.5 2.5-2.1 0-2.5.5-2.5 3s-.4 3-2.5 3c-2 0-2.5.5-2.5 2.5 0 2.1-.5 2.5-3 2.5-2.7 0-3 .3-3 3 0 2.5-.4 3-2.5 3-2 0-2.5.5-2.5 2.5 0 2.1-.5 2.5-3 2.5s-3 .4-3 2.5c0 2-.5 2.5-2.5 2.5-2.1 0-2.5.5-2.5 3 0 2.7-.3 3-3 3-2.5 0-3 .4-3 2.5 0 2-.5 2.5-2.5 2.5s-2.5-.5-2.5-2.5-.5-2.5-2.4-2.5-2.5-.6-2.8-2.8c-.2-2.1-.9-2.8-3-3-2.2-.3-2.8-.9-2.8-2.8s-.5-2.4-2.4-2.4-2.5-.6-2.8-2.8c-.2-1.9-.9-2.8-2.5-3-1.4-.2-2.3-1.1-2.5-2.5-.2-1.6-1.1-2.3-3-2.5-2.2-.3-2.8-.9-2.8-2.8s-.5-2.4-2.4-2.4-2.5-.6-2.8-2.8c-.2-2.1-.9-2.8-3-3-2.2-.3-2.8-.9-2.8-2.8V76h-32v2.5z"/><path d="M102.8 143.7c-.2 2-.9 2.9-2.5 3.1-1.7.3-2.3 1-2.3 2.8 0 2-.5 2.4-3 2.4-3 0-3 .1-3 5.5 0 5.2.1 5.5 2.5 5.5 2 0 2.5.5 2.5 2.5s.5 2.5 2.4 2.5 2.5.6 2.8 2.7c.2 2.2.9 2.9 3.1 3.1 2.1.3 2.7.9 2.7 2.8s.5 2.4 2.4 2.4 2.5.6 2.8 2.7c.2 2.2.9 2.9 3.1 3.1 2.1.3 2.7.9 2.7 2.8v2.4h15.3c19.7 0 22.7-.5 22.7-3.6 0-2-.5-2.4-3-2.4s-3-.4-3-2.5c0-2-.5-2.5-2.5-2.5s-2.5-.5-2.5-2.5-.5-2.5-2.5-2.5c-2.1 0-2.5-.5-2.5-3 0-2.7-.3-3-3-3-2.5 0-3-.4-3-2.5 0-2-.5-2.5-2.5-2.5-2.1 0-2.5-.5-2.5-3 0-2.7-.3-3-3-3-2.5 0-3-.4-3-2.5 0-2-.5-2.5-2.5-2.5s-2.5-.5-2.5-2.4-.6-2.5-2.7-2.8c-2.2-.2-2.9-.9-3.1-3.1-.3-2.5-.6-2.7-5.2-2.7-4.6 0-4.9.2-5.2 2.7z"/></svg>