<?xml version="1.0" standalone="no"?>
<!DOCTYPE svg PUBLIC "-//W3C//DTD SVG 20010904//EN"
 "http://www.w3.org/TR/2001/REC-SVG-20010904/DTD/svg10.dtd">
<svg version="1.0" xmlns="http://www.w3.org/2000/svg"
 width="260.000000pt" height="260.000000pt" viewBox="0 0 260.000000 260.000000"
 preserveAspectRatio="xMidYMid meet">
<metadata>
Created by potrace 1.14, written by Peter Selinger 2001-2017
</metadata>
<g transform="translate(0.000000,260.000000) scale(0.100000,-0.100000)"
fill="#000000" stroke="none">
<path d="M104 1836 c-11 -29 1 -51 29 -54 21 -3 27 -9 27 -28 0 -19 5 -24 24
-24 19 0 25 -6 28 -27 2 -22 9 -29 31 -31 21 -3 27 -9 27 -28 0 -19 5 -24 25
-24 20 0 25 -5 25 -25 0 -20 5 -25 24 -25 19 0 25 -6 28 -27 2 -22 9 -29 31
-31 21 -3 27 -9 27 -28 0 -19 5 -24 25 -24 20 0 25 -5 25 -25 0 -24 3 -25 54
-25 52 0 55 1 58 28 2 21 9 28 31 30 21 3 27 9 27 28 0 19 5 24 25 24 23 0 25
3 25 50 0 47 -2 50 -25 50 -21 0 -25 5 -25 30 0 27 -3 30 -30 30 -25 0 -30 4
-30 25 0 20 -5 25 -25 25 -20 0 -25 5 -25 24 0 19 -6 25 -27 28 -22 2 -29 9
-31 29 -3 25 -6 26 -85 32 -152 12 -287 9 -293 -7z"/>
<path d="M1140 1815 c0 -20 -5 -25 -24 -25 -19 0 -25 -6 -28 -27 -2 -22 -9
-29 -30 -31 -22 -3 -28 -9 -28 -28 0 -19 -5 -24 -24 -24 -19 0 -25 -6 -28 -27
-2 -22 -9 -29 -30 -31 -22 -3 -28 -9 -28 -28 0 -19 -5 -24 -24 -24 -19 0 -25
-6 -28 -27 -2 -22 -9 -29 -30 -31 -22 -3 -28 -9 -28 -28 0 -19 -5 -24 -25 -24
-20 0 -25 -5 -25 -25 0 -20 -5 -25 -24 -25 -19 0 -25 -6 -28 -27 -2 -22 -9
-29 -30 -31 -22 -3 -28 -9 -28 -28 0 -19 -5 -24 -24 -24 -19 0 -25 -6 -28 -27
-2 -22 -9 -29 -30 -31 -22 -3 -28 -9 -28 -28 0 -19 -5 -24 -25 -24 -20 0 -25
-5 -25 -25 0 -20 -5 -25 -24 -25 -19 0 -25 -6 -28 -27 -2 -22 -9 -29 -30 -31
-22 -3 -28 -9 -28 -28 0 -19 -5 -24 -24 -24 -19 0 -25 -6 -28 -27 -2 -22 -9
-29 -30 -31 -22 -3 -28 -9 -28 -28 0 -19 -5 -24 -24 -24 -19 0 -25 -6 -28 -27
-2 -22 -9 -29 -30 -31 -22 -3 -28 -9 -28 -28 0 -19 -5 -24 -25 -24 -20 0 -25
-5 -25 -25 0 -20 -5 -25 -25 -25 -20 0 -25 -5 -25 -25 l0 -25 185 0 185 0 0
25 c0 21 5 25 30 25 25 0 30 4 30 25 0 20 5 25 25 25 21 0 25 5 25 30 0 25 4
30 25 30 20 0 25 5 25 25 0 21 5 25 30 25 27 0 30 3 30 30 0 25 4 30 25 30 20
0 25 5 25 25 0 21 5 25 30 25 27 0 30 3 30 30 0 25 4 30 25 30 20 0 25 5 25
25 0 20 5 25 25 25 20 0 25 5 25 25 0 21 5 25 30 25 27 0 30 3 30 30 0 25 4
30 25 30 20 0 25 5 25 25 0 21 5 25 30 25 27 0 30 3 30 30 0 25 4 30 25 30 20
0 25 5 25 25 0 21 5 25 30 25 25 0 30 4 30 25 0 20 5 25 25 25 21 0 25 5 25
30 0 25 4 30 25 30 20 0 25 5 25 25 0 21 5 25 30 25 25 0 30 4 30 25 0 20 5
25 25 25 20 0 25 -5 25 -25 0 -21 5 -25 30 -25 27 0 30 -3 30 -30 0 -25 4 -30
25 -30 20 0 25 -5 25 -25 0 -20 5 -25 25 -25 20 0 25 -5 25 -25 0 -21 5 -25
30 -25 27 0 30 -3 30 -30 0 -25 4 -30 25 -30 20 0 25 -5 25 -25 0 -21 5 -25
30 -25 27 0 30 -3 30 -30 0 -25 4 -30 25 -30 20 0 25 -5 25 -25 0 -20 5 -25
24 -25 19 0 25 -6 28 -27 2 -22 9 -29 31 -31 21 -3 27 -9 27 -28 0 -26 8 -28
73 -18 31 6 37 11 37 30 0 19 5 24 25 24 20 0 25 5 25 24 0 19 6 25 28 28 21
2 28 9 30 30 3 22 9 28 28 28 19 0 24 5 24 25 0 20 5 25 24 25 19 0 25 6 28
28 2 21 9 28 31 30 21 3 27 9 27 28 0 20 5 24 30 24 25 0 30 4 30 25 0 20 5
25 25 25 l25 0 0 -375 0 -375 110 0 110 0 0 565 0 565 -140 0 -140 0 0 -25 c0
-20 -5 -25 -25 -25 -21 0 -25 -5 -25 -30 0 -25 -4 -30 -25 -30 -20 0 -25 -5
-25 -25 0 -21 -5 -25 -30 -25 -27 0 -30 -3 -30 -30 0 -25 -4 -30 -25 -30 -20
0 -25 -5 -25 -25 0 -21 -5 -25 -30 -25 -25 0 -30 -4 -30 -25 0 -20 -5 -25 -25
-25 -21 0 -25 -5 -25 -30 0 -27 -3 -30 -30 -30 -25 0 -30 -4 -30 -25 0 -20 -5
-25 -25 -25 -20 0 -25 5 -25 25 0 20 -5 25 -24 25 -19 0 -25 6 -28 28 -2 21
-9 28 -30 30 -22 3 -28 9 -28 28 0 19 -5 24 -24 24 -19 0 -25 6 -28 28 -2 19
-9 28 -25 30 -14 2 -23 11 -25 25 -2 16 -11 23 -30 25 -22 3 -28 9 -28 28 0
19 -5 24 -24 24 -19 0 -25 6 -28 28 -2 21 -9 28 -30 30 -22 3 -28 9 -28 28 l0
24 -160 0 -160 0 0 -25z"/>
<path d="M1028 1163 c-2 -20 -9 -29 -25 -31 -17 -3 -23 -10 -23 -28 0 -20 -5
-24 -30 -24 -30 0 -30 -1 -30 -55 0 -52 1 -55 25 -55 20 0 25 -5 25 -25 0 -20
5 -25 24 -25 19 0 25 -6 28 -27 2 -22 9 -29 31 -31 21 -3 27 -9 27 -28 0 -19
5 -24 24 -24 19 0 25 -6 28 -27 2 -22 9 -29 31 -31 21 -3 27 -9 27 -28 l0 -24
153 0 c197 0 227 5 227 36 0 20 -5 24 -30 24 -25 0 -30 4 -30 25 0 20 -5 25
-25 25 -20 0 -25 5 -25 25 0 20 -5 25 -25 25 -21 0 -25 5 -25 30 0 27 -3 30
-30 30 -25 0 -30 4 -30 25 0 20 -5 25 -25 25 -21 0 -25 5 -25 30 0 27 -3 30
-30 30 -25 0 -30 4 -30 25 0 20 -5 25 -25 25 -20 0 -25 5 -25 24 0 19 -6 25
-27 28 -22 2 -29 9 -31 31 -3 25 -6 27 -52 27 -46 0 -49 -2 -52 -27z"/>
</g>
</svg>
