<svg width="21" height="21" fill="none" xmlns="http://www.w3.org/2000/svg"><path d="M16.911 15.85a.75.75 0 0 0-1.06 1.061l1.06-1.06Zm2.559 4.68a.75.75 0 1 0 1.06-1.06l-1.06 1.06Zm-3.62-3.619 3.62 3.62 1.06-1.061-3.619-3.62-1.06 1.061Zm-6.707-.375A7.393 7.393 0 0 1 1.75 9.143H.25a8.893 8.893 0 0 0 8.893 8.893v-1.5Zm7.393-7.393a7.393 7.393 0 0 1-7.393 7.393v1.5a8.893 8.893 0 0 0 8.893-8.893h-1.5ZM9.143 1.75a7.393 7.393 0 0 1 7.393 7.393h1.5A8.893 8.893 0 0 0 9.143.25v1.5Zm0-1.5A8.893 8.893 0 0 0 .25 9.143h1.5A7.393 7.393 0 0 1 9.143 1.75V.25Z" fill="#D1D1D1"/></svg>