<svg width="26" height="26" fill="none" xmlns="http://www.w3.org/2000/svg"><path d="M20.959 19.898a.75.75 0 1 0-1.06 1.061l1.06-1.06Zm3.51 5.632a.75.75 0 1 0 1.061-1.06l-1.06 1.06ZM19.9 20.96l4.57 4.571 1.061-1.06-4.571-4.572-1.06 1.061Zm-8.613-.137a9.536 9.536 0 0 1-9.536-9.536H.25c0 6.095 4.94 11.036 11.036 11.036v-1.5Zm9.536-9.536a9.536 9.536 0 0 1-9.536 9.536v1.5c6.095 0 11.036-4.941 11.036-11.036h-1.5ZM11.286 1.75a9.536 9.536 0 0 1 9.536 9.536h1.5C22.322 5.19 17.38.25 11.286.25v1.5Zm0-1.5C5.19.25.25 5.19.25 11.286h1.5a9.536 9.536 0 0 1 9.536-9.536V.25Z" fill="#383838"/></svg>