<svg width="16" height="16" fill="none" xmlns="http://www.w3.org/2000/svg"><path d="m2.183 4.812.484.125-.484-.125Zm2.605-2.453.095.491-.095-.49ZM6.326 8.85l-.141-.48.14.48Zm.824.824-.48-.14.48.14Zm4.038 4.144.125.484-.125-.484Zm2.453-2.606.491.094-.491-.094ZM14.947 4.4l-.49-.095.49.095ZM11.6 1.053l-.094-.491.094.49ZM3.28 12.014a.5.5 0 1 0 .707.707l-.707-.707Zm1.76-.346a.5.5 0 1 0-.707-.707l.707.707Zm-1.234 2.979a.5.5 0 1 0 .707.707l-.707-.707Zm1.76-.346a.5.5 0 1 0-.707-.707l.707.707Zm-4.92-2.813a.5.5 0 1 0 .708.707l-.708-.707Zm1.76-.346a.5.5 0 1 0-.707-.707l.708.707Zm12.05-6.837-1.306 6.813.982.188 1.306-6.812-.982-.189ZM4.883 2.85l6.811-1.306-.188-.982-6.812 1.306.189.982ZM2.667 4.937A2.852 2.852 0 0 1 4.883 2.85l-.189-.982a3.852 3.852 0 0 0-2.996 2.819l.969.25ZM6.185 8.37c-2.094.615-4.068-1.308-3.518-3.434l-.969-.25C.958 7.55 3.615 10.169 6.467 9.33l-.282-.96Zm1.444 1.444A1.164 1.164 0 0 0 6.185 8.37l.282.96a.164.164 0 0 1 .203.202l.96.282Zm3.434 3.518c-2.126.55-4.05-1.424-3.434-3.518l-.96-.282c-.838 2.852 1.78 5.509 4.644 4.769l-.25-.969Zm2.087-2.216a2.852 2.852 0 0 1-2.087 2.216l.25.969a3.852 3.852 0 0 0 2.819-2.996l-.982-.188Zm2.288-6.623c.448-2.332-1.6-4.38-3.932-3.932l.188.982a2.36 2.36 0 0 1 2.762 2.761l.982.189ZM3.986 12.72l1.053-1.053-.707-.707-1.053 1.053.707.707Zm.526 2.633L5.565 14.3l-.707-.707-1.053 1.053.707.707Zm-3.158-3.16 1.053-1.052-.708-.707-1.053 1.053.708.707Z" fill="#fff"/></svg>