<svg width="17" height="8" fill="none" xmlns="http://www.w3.org/2000/svg"><path d="M11 4.625a.5.5 0 0 0 0-1v1Zm-10-1a.5.5 0 0 0 0 1v-1Zm2.148 3.98a.5.5 0 0 0 .704-.71l-.704.71Zm-.75-1.447.352-.355-.352.355Zm0-4.066-.352-.355.352.355Zm1.454-.737a.5.5 0 0 0-.704-.71l.704.71Zm-2.84 2.966-.496.063.496-.063Zm0-.392-.496-.063.496.063ZM11 3.625H1v1h10v-1Zm-7.148 3.27L2.75 5.803l-.704.71 1.102 1.092.704-.71ZM2.75 2.447l1.102-1.092-.704-.71-1.102 1.092.704.71Zm0 3.356c-.448-.444-.753-.748-.959-1.004-.2-.25-.265-.405-.283-.541l-.992.126c.05.394.239.722.495 1.04.25.312.604.662 1.035 1.09l.704-.711Zm-.704-4.066c-.43.427-.785.777-1.035 1.088-.256.32-.444.647-.495 1.041l.992.126c.018-.136.083-.292.283-.54.206-.257.511-.561.96-1.005l-.705-.71Zm-.538 2.52a1.048 1.048 0 0 1 0-.265l-.992-.126a2.049 2.049 0 0 0 0 .518l.992-.126Z" fill="#BDBDBD"/><path d="M6 3.625a.5.5 0 0 0 0 1v-1Zm10 1a.5.5 0 0 0 0-1v1ZM13.852.645a.5.5 0 0 0-.704.71l.704-.71Zm.75 1.447-.352.355.352-.355Zm0 4.066.352.355-.352-.355Zm-1.454.737a.5.5 0 0 0 .704.71l-.704-.71Zm2.84-2.966.496-.063-.496.063Zm0 .392.496.063-.496-.063ZM6 4.625h10v-1H6v1Zm7.148-3.27 1.102 1.092.704-.71L13.852.645l-.704.71Zm1.102 4.448-1.102 1.092.704.71 1.102-1.092-.704-.71Zm0-3.356c.448.444.753.748.959 1.004.2.25.265.405.283.541l.992-.126c-.05-.394-.239-.722-.495-1.04-.25-.312-.604-.662-1.035-1.09l-.704.711Zm.704 4.066c.43-.427.785-.777 1.035-1.088.256-.32.444-.647.495-1.04l-.992-.127c-.018.136-.083.292-.283.54-.206.257-.511.561-.96 1.005l.705.71Zm.538-2.52c.01.087.01.177 0 .265l.992.126a2.051 2.051 0 0 0 0-.518l-.992.126Z" fill="#BDBDBD"/></svg>