<svg width="36" height="46" fill="none" xmlns="http://www.w3.org/2000/svg"><path fill-rule="evenodd" clip-rule="evenodd" d="M35 39c0 1.9-3 3.9-8 5l-6-14h11v-1c0-1.7-1.3-3-3-3H11c-.4-1.6-1-3.7-1.6-6H27v-1c0-1.7-1.3-3-3-3H8.3C6.6 9.5 4.8 2.9 4.8 2.9 4.5 1.6 3.3.7 1.9.7c-.3 0-.5 0-.8.1L.2 1s2 7.6 4 15H2v4h3.3c.6 2.2 1.2 4.3 1.6 6H5v4h7.9L7.1 43.5c-2-.6-3.6-1.4-4.7-2.3C1.5 40.5 1 39.7 1 39H0c0 1.1.6 2.1 1.8 3 2.9 2.3 9.1 4 16.2 4 9.9 0 18-3.1 18-7h-1ZM1.4 1.7c.2 0 .3-.1.5-.1.9 0 1.7.6 1.9 1.5 0 0 1.7 6.5 3.4 12.8h-2C3.4 9 1.4 1.7 1.4 1.7ZM3 19v-2h21c1.1 0 2 .9 2 2H3Zm3.3 1h2.1c.6 2.4 1.2 4.5 1.6 6H7.9c-.4-1.6-1-3.7-1.6-6ZM6 29v-2h23c1.1 0 2 .9 2 2H6Zm12 16c-3.6 0-7.1-.4-9.9-1.2L14 30h6l6 14.2c-2.3.5-5 .8-8 .8Z" fill="#383838"/></svg>