<svg width="123" height="49" fill="none" xmlns="http://www.w3.org/2000/svg"><path fill-rule="evenodd" clip-rule="evenodd" d="M114 49h6v-1h-6v1Zm5-31h-7V5c0-2.8-2.2-5-5-5H19c-2.8 0-5 2.2-5 5v13H7c-2.2 0-4 1.8-4 4v4H0v23h43l4-4h64v2h12V22c0-2.2-1.8-4-4-4ZM4 22c0-1.7 1.3-3 3-3h7v7H4v-4Zm38 26H1v-6h41v6Zm4-3.6s-1.7 1.7-3 2.8v-6.1l3-2.4v5.7Zm0-6.9-3 2.4V27h3v10.5Zm65 6.5H47v-6h64v-1H47V27h64v17Zm0-18H40v1h2v14H1V27h39v-1H15V5c0-2.2 1.8-4 4-4h28v20h1V1h31v20h1V1h27c2.2 0 4 1.8 4 4v21Zm11 20h-10V24h10v22Zm0-23h-10v-4h7c1.7 0 3 1.3 3 3v1ZM64 12h-1v2h-2v1h2v2h1v-2h2v-1h-2v-2Zm32 0h-1v2h-2v1h2v2h1v-2h2v-1h-2v-2Zm-64 0h-1v2h-2v1h2v2h1v-2h2v-1h-2v-2Z" fill="#383838"/></svg>