<svg width="94" height="49" fill="none" xmlns="http://www.w3.org/2000/svg"><path fill-rule="evenodd" clip-rule="evenodd" d="M25.5 11h-1v2h-2v1h2v2h1v-2h2v-1h-2v-2Zm61-5h-4v22.7c-1.1-1.6-2.9-2.7-5-2.7V7h5V6h-5c0-3.3-2.7-6-6-6h-59c-3.3 0-6 2.7-6 6v20.1c-2.8.5-5 2.9-5 5.9v12h2v5h1v-5h14v5h65v-7h3c3.3 0 6-2.7 6-6V12c0-3.3-2.7-6-6-6Zm-79 0c0-2.8 2.2-5 5-5h29v17h1V1h29c2.8 0 5 2.2 5 5v20h-69V6Zm75 42h-63v-4h63v4Zm0-5h-80v-5h80v5Zm0-6h-80v-5c0-2.8 2.2-5 5-5h70c2.8 0 5 2.2 5 5v5Zm9-1c0 2.8-2.2 5-5 5h-3V7h3c2.8 0 5 2.2 5 5v24Zm-31-25h-1v2h-2v1h2v2h1v-2h2v-1h-2v-2Z" fill="#383838"/></svg>