<svg width="155" height="49" fill="none" xmlns="http://www.w3.org/2000/svg"><path fill-rule="evenodd" clip-rule="evenodd" d="M3 49h6v-1H3v1Zm143 0h6v-1h-6v1Zm-25-38h-1v2h-2v1h2v2h1v-2h2v-1h-2v-2Zm30 7h-7V5c0-2.8-2.2-5-5-5H16c-2.8 0-5 2.2-5 5v13H4c-2.2 0-4 1.8-4 4v25h12v-2h131v2h12V22c0-2.2-1.8-4-4-4ZM11 23H1v1h10v22H1V22c0-1.7 1.3-3 3-3h7v4Zm132 21H12v-7h131v7Zm0-8H12v-9h131v9Zm0-18v8H12V5c0-2.2 1.8-4 4-4h39v20h1V1h42v20h1V1h40c2.2 0 4 1.8 4 4v13Zm11 28h-10V24h10v22Zm0-23h-10v-4h7c1.7 0 3 1.3 3 3v1ZM78 11h-1v2h-2v1h2v2h1v-2h2v-1h-2v-2Zm-42 0h-1v2h-2v1h2v2h1v-2h2v-1h-2v-2Z" fill="#383838"/></svg>