<svg width="56" height="31" fill="none" xmlns="http://www.w3.org/2000/svg"><path fill-rule="evenodd" clip-rule="evenodd" d="M50 0H6C2.7 0 0 2.7 0 6v3h3v22h1v-3h48v3h1V9h3V6c0-3.3-2.7-6-6-6Zm-3.5 1c.8 0 1.5.7 1.5 1.5S47.3 4 46.5 4 45 3.3 45 2.5 45.7 1 46.5 1Zm-9 0c.8 0 1.5.7 1.5 1.5S38.3 4 37.5 4 36 3.3 36 2.5 36.7 1 37.5 1Zm-10 0c.8 0 1.5.7 1.5 1.5S28.3 4 27.5 4 26 3.3 26 2.5 26.7 1 27.5 1Zm-9 0c.8 0 1.5.7 1.5 1.5S19.3 4 18.5 4 17 3.3 17 2.5 17.7 1 18.5 1Zm-10 0c.8 0 1.5.7 1.5 1.5S9.3 4 8.5 4 7 3.3 7 2.5 7.7 1 8.5 1ZM52 27H4v-8h48v8Zm0-9H4V9h48v9Zm3-10H1V6c0-2.8 2.2-5 5-5h.5c-.3.4-.5.9-.5 1.5C6 3.9 7.1 5 8.5 5S11 3.9 11 2.5c0-.6-.2-1.1-.5-1.5h6c-.3.4-.5.9-.5 1.5C16 3.9 17.1 5 18.5 5S21 3.9 21 2.5c0-.6-.2-1.1-.5-1.5h5c-.3.4-.5.9-.5 1.5C25 3.9 26.1 5 27.5 5S30 3.9 30 2.5c0-.6-.2-1.1-.5-1.5h6c-.3.4-.5.9-.5 1.5C35 3.9 36.1 5 37.5 5S40 3.9 40 2.5c0-.6-.2-1.1-.5-1.5h5c-.3.4-.5.9-.5 1.5C44 3.9 45.1 5 46.5 5S49 3.9 49 2.5c0-.6-.2-1.1-.5-1.5H50c2.8 0 5 2.2 5 5v2Z" fill="#383838"/></svg>