<svg width="94" height="49" viewBox="0 0 94 49" fill="none" xmlns="http://www.w3.org/2000/svg">
<path fill-rule="evenodd" clip-rule="evenodd" d="M25.5 11H24.5V13H22.5V14H24.5V16H25.5V14H27.5V13H25.5V11ZM86.5 6H82.5V28.7C81.4 27.1 79.6 26 77.5 26V7H82.5V6H77.5C77.5 2.7 74.8 0 71.5 0H12.5C9.2 0 6.5 2.7 6.5 6V26.1C3.7 26.6 1.5 29 1.5 32V44H3.5V49H4.5V44H18.5V49H83.5V42H86.5C89.8 42 92.5 39.3 92.5 36V12C92.5 8.7 89.8 6 86.5 6ZM7.5 6C7.5 3.2 9.7 1 12.5 1H41.5V18H42.5V1H71.5C74.3 1 76.5 3.2 76.5 6V26H7.5V6ZM82.5 48H19.5V44H82.5V48ZM82.5 43H2.5V38H82.5V43ZM82.5 37H2.5V32C2.5 29.2 4.7 27 7.5 27H77.5C80.3 27 82.5 29.2 82.5 32V37ZM91.5 36C91.5 38.8 89.3 41 86.5 41H83.5V7H86.5C89.3 7 91.5 9.2 91.5 12V36ZM60.5 11H59.5V13H57.5V14H59.5V16H60.5V14H62.5V13H60.5V11Z" fill="#383838"/>
</svg>
