<svg width="36" height="46" viewBox="0 0 36 46" fill="none" xmlns="http://www.w3.org/2000/svg">
<path fill-rule="evenodd" clip-rule="evenodd" d="M35 39C35 40.9 32 42.9 27 44L21 30H32V29C32 27.3 30.7 26 29 26H11C10.6 24.4 10 22.3 9.4 20H27V19C27 17.3 25.7 16 24 16H8.3C6.6 9.5 4.8 2.9 4.8 2.9C4.5 1.6 3.3 0.699997 1.9 0.699997C1.6 0.699997 1.4 0.699997 1.1 0.799997L0.2 0.999997C0.2 0.999997 2.2 8.6 4.2 16H2V20H5.3C5.9 22.2 6.5 24.3 6.9 26H5V30H12.9L7.1 43.5C5.1 42.9 3.5 42.1 2.4 41.2C1.5 40.5 1 39.7 1 39H0C0 40.1 0.6 41.1 1.8 42C4.7 44.3 10.9 46 18 46C27.9 46 36 42.9 36 39H35ZM1.4 1.7C1.6 1.7 1.7 1.6 1.9 1.6C2.8 1.6 3.6 2.2 3.8 3.1C3.8 3.1 5.5 9.6 7.2 15.9H5.2C3.4 9 1.4 1.7 1.4 1.7ZM3 19V17H24C25.1 17 26 17.9 26 19H3ZM6.3 20H8.4C9 22.4 9.6 24.5 10 26H7.9C7.5 24.4 6.9 22.3 6.3 20ZM6 29V27H29C30.1 27 31 27.9 31 29H6ZM18 45C14.4 45 10.9 44.6 8.1 43.8L14 30H20L26 44.2C23.7 44.7 21 45 18 45Z" fill="#383838"/>
</svg>
