<svg width="159" height="47" fill="none" xmlns="http://www.w3.org/2000/svg"><path fill-rule="evenodd" clip-rule="evenodd" d="M59 1h45V0H59v1ZM11 5v8H4c-2.2 0-4 1.8-4 4v26h56V1h-1v23H12V5c0-2.2 1.8-4 4-4h40V0H16c-2.8 0-5 2.2-5 5Zm0 13H1v1h10v23H1V17c0-1.7 1.3-3 3-3h7v4Zm1 7h43v9H12v-9Zm0 10h43v7H12v-7Zm143-22h-7V5c0-2.8-2.2-5-5-5h-36v43.5l3.5 3.5H156v-4h3V17c0-2.2-1.8-4-4-4Zm-45 32.1-2-2.1v-8h2v10.1Zm0-11.1h-2v-9h2v9Zm-2-10V1h35c2.2 0 4 1.8 4 4v19h-39Zm47 22h-44V35h44v11Zm0-12h-44v-9h44v9Zm3-16h-10v1h10v23h-2V24h-8V14h7c1.7 0 3 1.3 3 3v1ZM34 15v-2h2v-1h-2v-2h-1v2h-2v1h2v2h1Zm70-14h-1v23H60V1h-1v42h45V1Zm-1 41H60v-7h43v7Zm0-8H60v-9h43v9ZM81 10v2h-2v1h2v2h1v-2h2v-1h-2v-2h-1Zm47 0h-1v2h-2v1h2v2h1v-2h2v-1h-2v-2Z" fill="#383838"/></svg>