<svg width="57" height="48" fill="none" xmlns="http://www.w3.org/2000/svg"><path fill-rule="evenodd" clip-rule="evenodd" d="M48 48h6v-1h-6v1ZM3 48h6v-1H3v1Zm16-34h19v-1H19v1Zm34 3h-2V6c0-3.3-2.7-6-6-6H12C8.7 0 6 2.7 6 6v11H4c-2.2 0-4 1.8-4 4v25h12v-2h33v2h12V21c0-2.2-1.8-4-4-4Zm-42 5H1v1h10v22H1V21c0-1.7 1.3-3 3-3h4c1.7 0 3 1.3 3 3v1Zm34 21H12v-7h33v7Zm0-8H12v-9h33v9Zm0-10H12v-4c0-2.2-1.8-4-4-4H7V6c0-2.8 2.2-5 5-5h33c2.8 0 5 2.2 5 5v11h-1c-2.2 0-4 1.8-4 4v4Zm11 20H46V23h10v22Zm0-23H46v-1c0-1.7 1.3-3 3-3h4c1.7 0 3 1.3 3 3v1Z" fill="#383838"/></svg>