<svg width="1880" height="225" viewBox="0 0 1880 225" fill="none" xmlns="http://www.w3.org/2000/svg">
<rect width="1880" height="225" rx="8" fill="#72BF44"/>
<mask id="mask0_43_106" style="mask-type:alpha" maskUnits="userSpaceOnUse" x="0" y="0" width="1880" height="225">
<rect width="1880" height="225" rx="8" fill="#72BF44"/>
</mask>
<g mask="url(#mask0_43_106)">
<g opacity="0.2">
<path fill-rule="evenodd" clip-rule="evenodd" d="M132.775 60.6099C147.531 32.3476 133.484 -1.17733 117.337 -17.3239C88.436 -46.2254 41.5775 -46.2254 12.6761 -17.3239C-16.2254 11.5775 -16.2254 58.436 12.6761 87.3375C29.5096 104.171 62.4606 117.646 90.6201 102.792C93.5139 101.266 94.9618 100.502 95.6695 100.218C98.6574 99.0161 100.229 98.8331 103.413 99.3164C104.167 99.4308 105.154 99.6865 107.127 100.198C113.045 101.732 116.005 102.499 118.162 102.421C125.919 102.142 132.142 95.9187 132.421 88.1624C132.499 86.0053 131.732 83.0461 130.198 77.1276C129.687 75.155 129.431 74.1683 129.317 73.4184C128.832 70.2346 129.006 68.7082 130.197 65.7159C130.477 65.0111 131.243 63.5441 132.775 60.6099ZM41.7532 33.9552C41.7532 38.0425 38.4398 41.3559 34.3525 41.3559C30.2652 41.3559 26.9518 38.0425 26.9518 33.9552C26.9518 29.868 30.2652 26.5546 34.3525 26.5546C38.4398 26.5546 41.7532 29.868 41.7532 33.9552ZM71.3559 33.9552C71.3559 38.0425 68.0425 41.3559 63.9552 41.3559C59.868 41.3559 56.5546 38.0425 56.5546 33.9552C56.5546 29.868 59.868 26.5546 63.9552 26.5546C68.0425 26.5546 71.3559 29.868 71.3559 33.9552ZM93.5579 41.3559C97.6452 41.3559 100.959 38.0425 100.959 33.9552C100.959 29.868 97.6452 26.5546 93.5579 26.5546C89.4707 26.5546 86.1573 29.868 86.1573 33.9552C86.1573 38.0425 89.4707 41.3559 93.5579 41.3559Z" fill="white"/>
</g>
<g opacity="0.2">
<path d="M1741.82 140.401C1769.67 126.386 1804.49 131.017 1827.74 154.294C1850.41 176.995 1855.37 210.714 1842.62 238.236C1844.39 237.378 1846.14 236.416 1847.87 235.345C1849.59 234.282 1850.45 233.75 1851.1 233.493C1852.34 233.001 1853.28 232.858 1854.61 232.961C1855.31 233.015 1856.1 233.22 1857.67 233.629C1867.61 236.207 1872.57 237.495 1876.15 236.766C1882.36 235.501 1887.21 230.643 1888.47 224.426C1889.2 220.844 1887.92 215.872 1885.34 205.928C1884.93 204.347 1884.73 203.557 1884.67 202.857C1884.57 201.524 1884.72 200.57 1885.21 199.327C1885.47 198.676 1886 197.822 1887.06 196.114C1906.2 165.271 1891.39 127.88 1872.69 109.156C1841.85 78.2815 1791.86 78.2815 1761.02 109.156C1751.96 118.236 1745.55 128.977 1741.82 140.401Z" fill="white"/>
<path fill-rule="evenodd" clip-rule="evenodd" d="M1749.64 264.79C1775.06 280.521 1806.38 267.734 1821.16 252.944C1846.55 227.519 1846.55 186.295 1821.16 160.87C1795.76 135.444 1754.59 135.444 1729.2 160.87C1713.8 176.29 1701.6 207.082 1717.36 232.482C1718.23 233.889 1718.67 234.592 1718.88 235.129C1719.29 236.152 1719.41 236.938 1719.33 238.036C1719.28 238.612 1719.11 239.263 1718.78 240.565C1716.66 248.754 1715.6 252.848 1716.2 255.798C1717.24 260.918 1721.23 264.919 1726.35 265.961C1729.29 266.561 1733.38 265.5 1741.56 263.378C1742.86 263.04 1743.51 262.872 1744.08 262.827C1745.18 262.742 1745.96 262.86 1746.98 263.265C1747.51 263.477 1748.22 263.915 1749.64 264.79ZM1793.7 206.901C1793.7 212.037 1797.86 216.201 1803 216.201C1808.14 216.201 1812.3 212.037 1812.3 206.901C1812.3 201.765 1808.14 197.601 1803 197.601C1797.86 197.601 1793.7 201.765 1793.7 206.901ZM1765.8 206.901C1765.8 212.037 1769.96 216.201 1775.1 216.201C1780.24 216.201 1784.4 212.037 1784.4 206.901C1784.4 201.765 1780.24 197.601 1775.1 197.601C1769.96 197.601 1765.8 201.765 1765.8 206.901ZM1747.2 216.201C1742.06 216.201 1737.9 212.037 1737.9 206.901C1737.9 201.765 1742.06 197.601 1747.2 197.601C1752.34 197.601 1756.5 201.765 1756.5 206.901C1756.5 212.037 1752.34 216.201 1747.2 216.201Z" fill="white"/>
</g>
</g>
<path d="M234 86C282.376 110.627 310.829 122.362 362.5 139C460.953 170.701 520.996 171.614 624 181C716.601 189.438 769.026 186.548 862 188C967.233 189.643 1026.25 188 1131.5 188C1221.91 188 1272.69 183.821 1363 188C1470.83 192.99 1638 216 1638 216" stroke="white" stroke-opacity="0.2" stroke-width="4" stroke-dasharray="6 6"/>
</svg>
