<svg width="22" height="22" fill="none" xmlns="http://www.w3.org/2000/svg"><path d="M2.959 1.736c.078-.078.118-.118.152-.15a2.225 2.225 0 0 1 3.01 0c.036.032.075.072.153.15l1.623 1.622a3.069 3.069 0 0 1 .643 3.397 3.069 3.069 0 0 0 .643 3.396l2.666 2.666a3.069 3.069 0 0 0 3.396.643 3.069 3.069 0 0 1 3.397.643l1.622 1.623c.078.078.118.117.15.152.781.851.781 2.16 0 3.01a5.613 5.613 0 0 1-.15.153l-.986.986a3.321 3.321 0 0 1-3.07.894A19.927 19.927 0 0 1 1.08 5.79a3.321 3.321 0 0 1 .894-3.069l.986-.986Z" stroke="#72BF44" stroke-width="1.5"/></svg>