<svg width="40" height="40" viewBox="0 0 40 40" fill="none" xmlns="http://www.w3.org/2000/svg">
<circle cx="20" cy="20" r="20" fill="#F2F2F2"/>
<path d="M11.2761 28.546L11.6165 27.8778L11.2761 28.546ZM8.65396 25.9239L9.32222 25.5835L8.65396 25.9239ZM31.346 25.9239L30.6778 25.5835L31.346 25.9239ZM28.7239 28.546L28.3835 27.8778L28.7239 28.546ZM28.7239 10.654L28.3835 11.3222L28.7239 10.654ZM31.346 13.2761L32.0143 12.9356L31.346 13.2761ZM11.2761 10.654L11.6165 11.3222L11.2761 10.654ZM8.65396 13.2761L7.98571 12.9356L8.65396 13.2761ZM23.6 26.35C24.0142 26.35 24.35 26.0142 24.35 25.6C24.35 25.1858 24.0142 24.85 23.6 24.85V26.35ZM18.8 24.85C18.3858 24.85 18.05 25.1858 18.05 25.6C18.05 26.0142 18.3858 26.35 18.8 26.35V24.85ZM15.2 26.35C15.6142 26.35 15.95 26.0142 15.95 25.6C15.95 25.1858 15.6142 24.85 15.2 24.85V26.35ZM12.8 24.85C12.3858 24.85 12.05 25.1858 12.05 25.6C12.05 26.0142 12.3858 26.35 12.8 26.35V24.85ZM8.01326 17.2L7.26339 17.1856L8.01326 17.2ZM31.9867 17.2L32.7366 17.1856L31.9867 17.2ZM17.6 10.75H22.4V9.25H17.6V10.75ZM22.4 28.45H17.6V29.95H22.4V28.45ZM17.6 28.45C15.9075 28.45 14.6832 28.4494 13.7203 28.3707C12.7662 28.2928 12.1349 28.1419 11.6165 27.8778L10.9356 29.2143C11.7007 29.6041 12.5512 29.7802 13.5981 29.8658C14.6363 29.9506 15.9322 29.95 17.6 29.95V28.45ZM7.25 19.6C7.25 21.2678 7.24942 22.5637 7.33424 23.6019C7.41977 24.6488 7.59588 25.4994 7.98571 26.2644L9.32222 25.5835C9.05809 25.0651 8.90721 24.4338 8.82925 23.4797C8.75058 22.5168 8.75 21.2925 8.75 19.6H7.25ZM11.6165 27.8778C10.6287 27.3744 9.82555 26.5713 9.32222 25.5835L7.98571 26.2644C8.63285 27.5345 9.66547 28.5672 10.9356 29.2143L11.6165 27.8778ZM31.25 19.6C31.25 21.2925 31.2494 22.5168 31.1707 23.4797C31.0928 24.4338 30.9419 25.0651 30.6778 25.5835L32.0143 26.2644C32.4041 25.4994 32.5802 24.6488 32.6658 23.6019C32.7506 22.5637 32.75 21.2678 32.75 19.6H31.25ZM22.4 29.95C24.0678 29.95 25.3637 29.9506 26.4019 29.8658C27.4488 29.7802 28.2994 29.6041 29.0644 29.2143L28.3835 27.8778C27.8651 28.1419 27.2338 28.2928 26.2797 28.3707C25.3168 28.4494 24.0925 28.45 22.4 28.45V29.95ZM30.6778 25.5835C30.1744 26.5713 29.3713 27.3744 28.3835 27.8778L29.0644 29.2143C30.3345 28.5672 31.3671 27.5345 32.0143 26.2644L30.6778 25.5835ZM22.4 10.75C24.0925 10.75 25.3168 10.7506 26.2797 10.8293C27.2338 10.9072 27.8651 11.0581 28.3835 11.3222L29.0644 9.98571C28.2994 9.59588 27.4488 9.41977 26.4019 9.33424C25.3637 9.24942 24.0678 9.25 22.4 9.25V10.75ZM28.3835 11.3222C29.3713 11.8256 30.1744 12.6287 30.6778 13.6165L32.0143 12.9356C31.3671 11.6655 30.3345 10.6329 29.0644 9.98571L28.3835 11.3222ZM17.6 9.25C15.9322 9.25 14.6363 9.24942 13.5981 9.33424C12.5512 9.41977 11.7007 9.59588 10.9356 9.98571L11.6165 11.3222C12.1349 11.0581 12.7662 10.9072 13.7203 10.8293C14.6832 10.7506 15.9075 10.75 17.6 10.75V9.25ZM10.9356 9.98571C9.66547 10.6329 8.63285 11.6655 7.98571 12.9356L9.32222 13.6165C9.82555 12.6287 10.6287 11.8256 11.6165 11.3222L10.9356 9.98571ZM23.6 24.85H18.8V26.35H23.6V24.85ZM15.2 24.85H12.8V26.35H15.2V24.85ZM8.75 19.6C8.75 18.6816 8.75003 17.8981 8.76312 17.2144L7.26339 17.1856C7.24997 17.8867 7.25 18.6859 7.25 19.6H8.75ZM8.76312 17.2144C8.79854 15.3643 8.93297 14.3805 9.32222 13.6165L7.98571 12.9356C7.42366 14.0386 7.2987 15.3415 7.26339 17.1856L8.76312 17.2144ZM31.9867 16.45H8.01326V17.95H31.9867V16.45ZM32.75 19.6C32.75 18.6859 32.75 17.8867 32.7366 17.1856L31.2369 17.2144C31.25 17.8981 31.25 18.6816 31.25 19.6H32.75ZM32.7366 17.1856C32.7013 15.3415 32.5763 14.0386 32.0143 12.9356L30.6778 13.6165C31.067 14.3805 31.2015 15.3643 31.2369 17.2144L32.7366 17.1856Z" fill="#383838"/>
</svg>
