<svg width="40" height="40" fill="none" xmlns="http://www.w3.org/2000/svg"><circle cx="20" cy="20" r="20" fill="#E0E0E0"/><path d="M24.05 16.4A4.05 4.05 0 0 1 20 20.45v1.5a5.55 5.55 0 0 0 5.55-5.55h-1.5ZM20 20.45a4.05 4.05 0 0 1-4.05-4.05h-1.5A5.55 5.55 0 0 0 20 21.95v-1.5Zm-4.05-4.05A4.05 4.05 0 0 1 20 12.35v-1.5a5.55 5.55 0 0 0-5.55 5.55h1.5ZM20 12.35a4.05 4.05 0 0 1 4.05 4.05h1.5A5.55 5.55 0 0 0 20 10.85v1.5Zm-3.6 13.2h7.2v-1.5h-7.2v1.5ZM8.75 20c0-6.213 5.037-11.25 11.25-11.25v-1.5C12.958 7.25 7.25 12.958 7.25 20h1.5ZM20 8.75c6.213 0 11.25 5.037 11.25 11.25h1.5c0-7.042-5.708-12.75-12.75-12.75v1.5ZM31.25 20c0 3.19-1.327 6.07-3.462 8.118l1.04 1.082A12.716 12.716 0 0 0 32.75 20h-1.5Zm-3.462 8.118A11.21 11.21 0 0 1 20 31.25v1.5a12.71 12.71 0 0 0 8.827-3.55l-1.039-1.082ZM23.6 25.55a4.052 4.052 0 0 1 3.972 3.255l1.471-.292A5.552 5.552 0 0 0 23.6 24.05v1.5Zm-3.6 5.7a11.21 11.21 0 0 1-7.789-3.132L11.173 29.2A12.71 12.71 0 0 0 20 32.75v-1.5Zm-7.789-3.132A11.215 11.215 0 0 1 8.75 20h-1.5c0 3.616 1.506 6.88 3.923 9.2l1.038-1.082ZM16.4 24.05a5.552 5.552 0 0 0-5.443 4.463l1.47.292A4.052 4.052 0 0 1 16.4 25.55v-1.5Z" fill="#383838"/></svg>