<svg width="24" height="24" fill="none" xmlns="http://www.w3.org/2000/svg"><path d="M21.5 6a.5.5 0 0 1 .5.5v11a.5.5 0 0 1-.5.5h-19a.5.5 0 0 1-.5-.5v-11a.5.5 0 0 1 .5-.5h19ZM24 6a2 2 0 0 0-2-2H2a2 2 0 0 0-2 2v12a2 2 0 0 0 2 2h20a2 2 0 0 0 2-2V6ZM10.447 9.63h1.295l-.81 4.753H9.637l.81-4.753Zm3.907 1.908c-.453-.22-.73-.367-.727-.589 0-.198.235-.409.742-.409.424-.007.73.086.97.182l.116.055.176-1.03a3.354 3.354 0 0 0-1.161-.2c-1.28 0-2.182.645-2.189 1.568-.007.683.644 1.064 1.135 1.291.504.233.674.381.671.59-.003.318-.403.464-.775.464-.518 0-.794-.072-1.219-.249l-.167-.076-.182 1.064c.303.133.862.248 1.443.254 1.362 0 2.246-.637 2.256-1.624.003-.541-.342-.952-1.089-1.291ZM20 14.384h-1.202l-.158-.712-1.659-.002-.273.714h-1.36l1.924-4.355c.136-.309.368-.394.678-.394h1.001L20 14.384Zm-1.571-1.686-.3-1.372-.088-.41-.172.454-.516 1.328h1.076ZM8.55 9.633l-1.268 3.241-.135-.659-.454-2.184c-.079-.3-.306-.39-.588-.401H4.016L4 9.729c.508.123.962.3 1.361.521l1.152 4.128 1.371-.002 2.039-4.743H8.55Z" fill="#383838"/></svg>