<svg width="25" height="25" fill="none" xmlns="http://www.w3.org/2000/svg"><path fill-rule="evenodd" clip-rule="evenodd" d="M1.754 1.754C0 3.508 0 6.332 0 11.98v1.042c0 5.646 0 8.47 1.754 10.225C3.508 25 6.332 25 11.98 25h1.042c5.646 0 8.47 0 10.225-1.754C25 21.492 25 18.668 25 13.02v-1.042c0-5.646 0-8.47-1.754-10.225C21.492 0 18.668 0 13.02 0h-1.042C6.333 0 3.51 0 1.754 1.754Zm3.194 6.058h1.823c.466 0 .64.205.816.71.891 2.596 2.395 4.866 3.012 4.866.233 0 .338-.106.338-.695v-2.685c-.041-.764-.308-1.094-.506-1.34-.122-.15-.218-.269-.218-.436 0-.204.175-.42.464-.42h2.865c.386 0 .52.207.52.67v3.612c0 .386.168.522.284.522.232 0 .425-.136.85-.561 1.313-1.467 2.24-3.727 2.24-3.727.116-.27.33-.515.793-.515h1.823c.551 0 .668.284.551.67-.231 1.062-2.452 4.19-2.452 4.19-.194.31-.271.464 0 .811.095.134.3.334.532.562.239.234.508.498.723.752.783.88 1.373 1.624 1.537 2.135.151.515-.11.775-.63.775h-1.824c-.488 0-.734-.273-1.265-.864-.225-.25-.501-.558-.869-.927-1.082-1.042-1.545-1.177-1.816-1.177-.367 0-.476.104-.476.625V17c0 .448-.144.708-1.303.708-1.93 0-4.053-1.172-5.56-3.335-2.26-3.167-2.877-5.562-2.877-6.045 0-.27.104-.515.625-.515Z" fill="#A7A7A7"/></svg>