<svg width="24" height="24" fill="none" xmlns="http://www.w3.org/2000/svg"><path d="M12 2.25c-3.01 0-5.691 1.373-7.48 3.517l-.01-.009a9.778 9.778 0 0 0-.55.73l-.003.006A9.71 9.71 0 0 0 2.25 12c0 5.376 4.374 9.75 9.75 9.75.602 0 1.19-.06 1.764-.166l.006-.001a9.7 9.7 0 0 0 .96-.221l-.004-.018A9.745 9.745 0 0 0 18 19.67l-1.907-2.133-2.184 1.966-3.933-4.367 1.015-.914-2.652-2.944 1.074-.967-2.667-2.96 4.223-3.903 1.451 1.54L14.63 3l1.165 1.295.917-.825A9.702 9.702 0 0 0 12 2.25Zm5.895 2.347-.947.852.853.948.946-.853-.852-.947Zm-3.25.237-1.577 1.42 1.42 1.58 1.578-1.42-1.42-1.58Zm-3.771.67L8.742 7.421l1.92 2.132 2.13-1.92-1.918-2.13ZM4.997 7.648l2.296 2.55-1.072.967 1.004 1.114 1.646 1.83-1.015.913 4.689 5.208A8.24 8.24 0 0 1 3.75 12a8.19 8.19 0 0 1 1.247-4.35Zm14.377.434-.946.853.852.946.947-.853-.853-.946Zm-3.111.293-1.578 1.42 1.421 1.58 1.578-1.42-1.421-1.58Zm-3.727 1.102-2.131 1.918 1.919 2.132 2.131-1.92-1.919-2.13Zm8.316 2.055-.948.852.853.947.948-.853-.853-.946Zm-3.101.54-1.58 1.421 1.422 1.58 1.579-1.422-1.421-1.579Zm-3.561 1.414-2.131 1.919 1.918 2.131 2.132-1.919-1.92-2.131Zm5.102 2.117-1.58 1.42 1.422 1.58 1.579-1.421-1.421-1.58Z" fill="#383838"/></svg>