<svg width="25" height="19" fill="none" xmlns="http://www.w3.org/2000/svg"><path d="M24.751 4.5s-.244-1.724-.996-2.48c-.952-.997-2.017-1.001-2.505-1.06-3.496-.254-8.745-.254-8.745-.254h-.01S7.246.706 3.75.96c-.488.059-1.553.063-2.505 1.06C.493 2.776.254 4.5.254 4.5S0 6.526 0 8.548v1.894c0 2.022.249 4.048.249 4.048s.244 1.724.991 2.48c.952.997 2.202.963 2.759 1.07 2.002.19 8.501.25 8.501.25s5.254-.01 8.75-.26c.488-.058 1.553-.063 2.505-1.06.752-.756.996-2.48.996-2.48S25 12.47 25 10.442V8.548c0-2.022-.249-4.048-.249-4.048ZM9.917 12.742V5.716L16.67 9.24l-6.753 3.501Z" fill="#A7A7A7"/></svg>